<svg width="16" height="16" viewBox="0 0 16 16" fill="none" xmlns="http://www.w3.org/2000/svg">
<path d="M7.7 10.4L8.0877 10.6908L8.39043 10.3123L15.5 1.42539V11.23C15.5 12.064 15.4996 12.66 15.4621 13.1274C15.425 13.5892 15.354 13.8821 15.2364 14.1174C14.9944 14.6017 14.6017 14.9944 14.1174 15.2364C13.8821 15.354 13.5892 15.425 13.1274 15.4621C12.66 15.4996 12.064 15.5 11.23 15.5H4.77C3.93596 15.5 3.34 15.4996 2.87257 15.4621C2.41082 15.425 2.11794 15.354 1.88255 15.2364C1.39827 14.9944 1.00562 14.6017 0.763638 14.1174C0.646022 13.8821 0.575045 13.5892 0.537939 13.1274C0.500376 12.66 0.5 12.064 0.5 11.23V11.2071L4.04692 7.66019L7.7 10.4Z" stroke="#C4C4C4" stroke-opacity="0.5"/>
</svg>
