<svg width="9" height="9" viewBox="0 0 9 9" fill="none" xmlns="http://www.w3.org/2000/svg">
<path d="M5.36211 4.56632C5.35338 4.55761 5.34645 4.54726 5.34173 4.53587C5.337 4.52449 5.33457 4.51228 5.33457 4.49995C5.33457 4.48761 5.337 4.4754 5.34173 4.46402C5.34645 4.45263 5.35338 4.44228 5.36211 4.43357L8.83545 0.960462C8.94092 0.854844 9.00011 0.711654 9 0.562393C8.99989 0.413131 8.9405 0.270025 8.83489 0.164556C8.72927 0.0590873 8.58609 -0.000105343 8.43684 1.4074e-07C8.28758 0.000105624 8.14448 0.0595006 8.03901 0.165119L4.56605 3.63673C4.55734 3.64546 4.547 3.65239 4.53561 3.65711C4.52422 3.66184 4.51201 3.66427 4.49968 3.66427C4.48735 3.66427 4.47514 3.66184 4.46375 3.65711C4.45236 3.65239 4.44202 3.64546 4.43331 3.63673L0.960344 0.165119C0.908123 0.112871 0.846123 0.0714213 0.777884 0.0431357C0.709645 0.0148501 0.636503 0.000282697 0.562634 0.000265287C0.41345 0.000230125 0.270361 0.0594623 0.164847 0.164931C0.0593323 0.2704 3.51758e-05 0.413467 1.5645e-08 0.562658C-3.51446e-05 0.711849 0.0591945 0.854943 0.164659 0.960462L3.63725 4.43357C3.64598 4.44228 3.65291 4.45263 3.65763 4.46402C3.66236 4.4754 3.66479 4.48761 3.66479 4.49995C3.66479 4.51228 3.66236 4.52449 3.65763 4.53587C3.65291 4.54726 3.64598 4.55761 3.63725 4.56632L0.164659 8.0398C0.112438 8.09205 0.0710194 8.15407 0.0427672 8.22233C0.0145149 8.29058 -1.73939e-05 8.36374 1.5645e-08 8.43761C3.51758e-05 8.5868 0.0593323 8.72987 0.164847 8.83533C0.217092 8.88756 0.279112 8.92898 0.347364 8.95723C0.415617 8.98549 0.488765 9.00002 0.562634 9C0.711819 8.99996 0.854879 8.94067 0.960344 8.83515L4.43331 5.36166C4.44202 5.35293 4.45236 5.346 4.46375 5.34128C4.47514 5.33655 4.48735 5.33412 4.49968 5.33412C4.51201 5.33412 4.52422 5.33655 4.53561 5.34128C4.547 5.346 4.55734 5.35293 4.56605 5.36166L8.03901 8.83515C8.14448 8.94067 8.28754 8.99996 8.43673 9C8.58591 9.00004 8.729 8.9408 8.83451 8.83533C8.94003 8.72987 8.99932 8.5868 8.99936 8.43761C8.9994 8.28842 8.94017 8.14532 8.8347 8.0398L5.36211 4.56632Z" fill="#1C1F26"/>
</svg>
