<svg width="12" height="12" viewBox="0 0 12 12" fill="none" xmlns="http://www.w3.org/2000/svg">
<path d="M1.04962 9.75483C0.738586 10.0659 0.732239 10.6181 1.05597 10.9418C1.38605 11.2656 1.93829 11.2592 2.24298 10.9545L6.00079 7.19672L9.75226 10.9482C10.0696 11.2656 10.6155 11.2656 10.9393 10.9418C11.263 10.6118 11.263 10.0722 10.9456 9.75483L7.19415 6.00336L10.9456 2.24555C11.263 1.92817 11.2693 1.38227 10.9393 1.05854C10.6155 0.734808 10.0696 0.734808 9.75226 1.05219L6.00079 4.80366L2.24298 1.05219C1.93829 0.741156 1.3797 0.72846 1.05597 1.05854C0.732239 1.38227 0.738586 1.94086 1.04962 2.24555L4.80109 6.00336L1.04962 9.75483Z" fill="white"/>
</svg>
