<svg width="20" height="20" viewBox="0 0 20 20" fill="none" xmlns="http://www.w3.org/2000/svg">
<path d="M5.8338 0.833313C8.10535 0.833313 9.36618 2.75445 10.1249 5.97558L10.1872 6.25658L10.2915 6.77741L10.4397 7.58153L10.5863 8.42323L10.8183 9.838L10.9571 10.5189L11.0905 11.139C11.1126 11.2381 11.1346 11.3353 11.1566 11.4309L11.2905 11.9877C11.4265 12.5303 11.5717 13.0374 11.7465 13.5761C12.5574 16.0757 13.566 17.5 14.5838 17.5C15.3141 17.5 16.1311 16.1929 16.749 13.9457C16.9906 13.0673 17.1848 12.12 17.3349 11.1717L17.407 10.6921L17.4864 10.0819L17.5046 9.91706C17.5504 9.45911 17.9588 9.12499 18.4167 9.17078C18.8747 9.21658 19.2088 9.62495 19.163 10.0829L19.1192 10.4614L19.0572 10.9253L18.9811 11.4324C18.822 12.4373 18.6158 13.4431 18.3561 14.3876C17.5418 17.3487 16.4055 19.1666 14.5838 19.1666C12.5449 19.1666 11.185 17.2463 10.1611 14.0905C9.88132 13.228 9.67493 12.4508 9.46735 11.5188L9.32797 10.8719L9.18042 10.143L8.87514 8.30863L8.73991 7.54736L8.63073 6.96699L8.56325 6.63229L8.50267 6.35771C7.90657 3.82708 7.03559 2.49998 5.8338 2.49998C4.89023 2.49998 3.98069 3.79932 3.29866 6.07277C3.03639 6.94699 2.82883 7.89046 2.67142 8.8349C2.64382 9.00048 2.6188 9.16008 2.59626 9.31263L2.52437 9.84L2.49633 10.0829C2.45054 10.5409 2.04217 10.875 1.58422 10.8292C1.12626 10.7834 0.792143 10.375 0.837938 9.91706L0.882924 9.53564L0.947363 9.06989C0.971412 8.9071 0.998065 8.7371 1.02743 8.5609C1.19555 7.5522 1.41767 6.54256 1.70228 5.59386C2.58274 2.65898 3.86071 0.833313 5.8338 0.833313ZM7.0838 9.16665C7.54404 9.16665 7.91714 9.53974 7.91714 9.99998C7.91714 10.4273 7.59544 10.7796 7.18099 10.8277L7.0838 10.8333H4.5838C4.12357 10.8333 3.75047 10.4602 3.75047 9.99998C3.75047 9.57262 4.07217 9.22039 4.48662 9.17225L4.5838 9.16665H7.0838ZM15.4171 9.16665C15.8774 9.16665 16.2505 9.53974 16.2505 9.99998C16.2505 10.4273 15.9288 10.7796 15.5143 10.8277L15.4171 10.8333H12.9171C12.4569 10.8333 12.0838 10.4602 12.0838 9.99998C12.0838 9.57262 12.4055 9.22039 12.82 9.17225L12.9171 9.16665H15.4171Z" fill="#CAE2F6"/>
</svg>
