<svg width="64" height="64" viewBox="0 0 64 64" fill="none" xmlns="http://www.w3.org/2000/svg">
<path fill-rule="evenodd" clip-rule="evenodd" d="M3.83301 10.6665C3.83301 9.83808 4.50458 9.1665 5.33301 9.1665H58.6663C59.4948 9.1665 60.1663 9.83808 60.1663 10.6665V53.3332C60.1663 54.1616 59.4948 54.8332 58.6663 54.8332H5.33301C4.50458 54.8332 3.83301 54.1616 3.83301 53.3332V10.6665ZM6.83301 12.1665V51.8332H57.1663V12.1665H6.83301Z" fill="white"/>
<path fill-rule="evenodd" clip-rule="evenodd" d="M15.833 27.9998C15.833 24.2259 18.8924 21.1665 22.6663 21.1665C26.4402 21.1665 29.4997 24.2259 29.4997 27.9998C29.4997 31.7737 26.4402 34.8332 22.6663 34.8332C18.8924 34.8332 15.833 31.7737 15.833 27.9998ZM22.6663 24.1665C20.5493 24.1665 18.833 25.8828 18.833 27.9998C18.833 30.1169 20.5493 31.8332 22.6663 31.8332C24.7834 31.8332 26.4997 30.1169 26.4997 27.9998C26.4997 25.8828 24.7834 24.1665 22.6663 24.1665Z" fill="white"/>
<path fill-rule="evenodd" clip-rule="evenodd" d="M13.167 41.3335C13.167 36.0868 17.4203 31.8335 22.667 31.8335C27.9137 31.8335 32.167 36.0868 32.167 41.3335C32.167 42.1619 31.4954 42.8335 30.667 42.8335C29.8386 42.8335 29.167 42.1619 29.167 41.3335C29.167 37.7437 26.2568 34.8335 22.667 34.8335C19.0772 34.8335 16.167 37.7437 16.167 41.3335C16.167 42.1619 15.4954 42.8335 14.667 42.8335C13.8386 42.8335 13.167 42.1619 13.167 41.3335Z" fill="white"/>
<path fill-rule="evenodd" clip-rule="evenodd" d="M35.833 26.6665C35.833 25.8381 36.5046 25.1665 37.333 25.1665H47.9997C48.8281 25.1665 49.4997 25.8381 49.4997 26.6665C49.4997 27.4949 48.8281 28.1665 47.9997 28.1665H37.333C36.5046 28.1665 35.833 27.4949 35.833 26.6665Z" fill="white"/>
<path fill-rule="evenodd" clip-rule="evenodd" d="M39 37.3335C39 36.7812 39.4477 36.3335 40 36.3335H48C48.5523 36.3335 49 36.7812 49 37.3335C49 37.8858 48.5523 38.3335 48 38.3335H40C39.4477 38.3335 39 37.8858 39 37.3335Z" fill="white"/>
</svg>
