<svg width="64" height="64" viewBox="0 0 64 64" fill="none" xmlns="http://www.w3.org/2000/svg">
<path fill-rule="evenodd" clip-rule="evenodd" d="M7.99967 12.1665C7.35534 12.1665 6.83301 12.6888 6.83301 13.3332V50.6665C6.83301 51.3108 7.35534 51.8332 7.99967 51.8332H55.9997C56.644 51.8332 57.1663 51.3108 57.1663 50.6665V13.3332C57.1663 12.6888 56.644 12.1665 55.9997 12.1665H7.99967ZM3.83301 13.3332C3.83301 11.032 5.69849 9.1665 7.99967 9.1665H55.9997C58.3009 9.1665 60.1663 11.032 60.1663 13.3332V50.6665C60.1663 52.9677 58.3009 54.8332 55.9997 54.8332H7.99967C5.69849 54.8332 3.83301 52.9677 3.83301 50.6665V13.3332Z" fill="white"/>
<path fill-rule="evenodd" clip-rule="evenodd" d="M35.833 21.3335C35.833 20.5051 36.5046 19.8335 37.333 19.8335H47.9997C48.8281 19.8335 49.4997 20.5051 49.4997 21.3335V32.0002C49.4997 32.8286 48.8281 33.5002 47.9997 33.5002H37.333C36.5046 33.5002 35.833 32.8286 35.833 32.0002V21.3335ZM38.833 22.8335V30.5002H46.4997V22.8335H38.833Z" fill="white"/>
<path fill-rule="evenodd" clip-rule="evenodd" d="M14.5 42.6665C14.5 41.8381 15.1716 41.1665 16 41.1665H48C48.8284 41.1665 49.5 41.8381 49.5 42.6665C49.5 43.4949 48.8284 44.1665 48 44.1665H16C15.1716 44.1665 14.5 43.4949 14.5 42.6665Z" fill="white"/>
<path fill-rule="evenodd" clip-rule="evenodd" d="M14.5 21.3335C14.5 20.5051 15.1716 19.8335 16 19.8335H24C24.8284 19.8335 25.5 20.5051 25.5 21.3335C25.5 22.1619 24.8284 22.8335 24 22.8335H16C15.1716 22.8335 14.5 22.1619 14.5 21.3335Z" fill="white"/>
<path fill-rule="evenodd" clip-rule="evenodd" d="M15 32C15 31.4477 15.4477 31 16 31H24C24.5523 31 25 31.4477 25 32C25 32.5523 24.5523 33 24 33H16C15.4477 33 15 32.5523 15 32Z" fill="white"/>
</svg>
