<svg width="64" height="64" viewBox="0 0 64 64" fill="none" xmlns="http://www.w3.org/2000/svg">
<path fill-rule="evenodd" clip-rule="evenodd" d="M11.833 13.3335C11.833 12.5051 12.5046 11.8335 13.333 11.8335H50.6663C51.4948 11.8335 52.1663 12.5051 52.1663 13.3335V58.6668C52.1663 59.4953 51.4948 60.1668 50.6663 60.1668H13.333C12.5046 60.1668 11.833 59.4953 11.833 58.6668V13.3335ZM14.833 14.8335V57.1668H49.1663V14.8335H14.833Z" fill="white"/>
<path fill-rule="evenodd" clip-rule="evenodd" d="M43.5772 4.14145C43.9487 4.42522 44.1667 4.866 44.1667 5.33351V13.3335C44.1667 14.1619 43.4951 14.8335 42.6667 14.8335C41.8383 14.8335 41.1667 14.1619 41.1667 13.3335V7.29738L13.7281 14.7807C12.9288 14.9986 12.1042 14.5274 11.8862 13.7282C11.6683 12.9289 12.1395 12.1043 12.9387 11.8864L42.272 3.88636C42.7231 3.76335 43.2057 3.85767 43.5772 4.14145Z" fill="white"/>
<path fill-rule="evenodd" clip-rule="evenodd" d="M32.0003 28.1665C29.8832 28.1665 28.167 29.8827 28.167 31.9998C28.167 34.1169 29.8832 35.8332 32.0003 35.8332C34.1174 35.8332 35.8337 34.1169 35.8337 31.9998C35.8337 29.8827 34.1174 28.1665 32.0003 28.1665ZM25.167 31.9998C25.167 28.2259 28.2264 25.1665 32.0003 25.1665C35.7743 25.1665 38.8337 28.2259 38.8337 31.9998C38.8337 35.7738 35.7743 38.8332 32.0003 38.8332C28.2264 38.8332 25.167 35.7738 25.167 31.9998Z" fill="white"/>
<path fill-rule="evenodd" clip-rule="evenodd" d="M25.167 45.3335C25.167 44.5051 25.8386 43.8335 26.667 43.8335H37.3337C38.1621 43.8335 38.8337 44.5051 38.8337 45.3335C38.8337 46.1619 38.1621 46.8335 37.3337 46.8335H26.667C25.8386 46.8335 25.167 46.1619 25.167 45.3335Z" fill="white"/>
</svg>
