<svg width="65" height="64" viewBox="0 0 65 64" fill="none" xmlns="http://www.w3.org/2000/svg">
<path fill-rule="evenodd" clip-rule="evenodd" d="M4.33337 10.6665C4.33337 9.83808 5.00495 9.1665 5.83337 9.1665H59.1667C59.9951 9.1665 60.6667 9.83808 60.6667 10.6665V53.3332C60.6667 54.1616 59.9951 54.8332 59.1667 54.8332H5.83337C5.00495 54.8332 4.33337 54.1616 4.33337 53.3332V10.6665ZM7.33337 12.1665V51.8332H57.6667V12.1665H7.33337Z" fill="white"/>
<path fill-rule="evenodd" clip-rule="evenodd" d="M16.3334 27.9998C16.3334 24.2259 19.3928 21.1665 23.1667 21.1665C26.9406 21.1665 30 24.2259 30 27.9998C30 31.7737 26.9406 34.8332 23.1667 34.8332C19.3928 34.8332 16.3334 31.7737 16.3334 27.9998ZM23.1667 24.1665C21.0497 24.1665 19.3334 25.8828 19.3334 27.9998C19.3334 30.1169 21.0497 31.8332 23.1667 31.8332C25.2837 31.8332 27 30.1169 27 27.9998C27 25.8828 25.2837 24.1665 23.1667 24.1665Z" fill="white"/>
<path fill-rule="evenodd" clip-rule="evenodd" d="M13.6666 41.3335C13.6666 36.0868 17.9199 31.8335 23.1666 31.8335C28.4133 31.8335 32.6666 36.0868 32.6666 41.3335C32.6666 42.1619 31.9951 42.8335 31.1666 42.8335C30.3382 42.8335 29.6666 42.1619 29.6666 41.3335C29.6666 37.7437 26.7565 34.8335 23.1666 34.8335C19.5768 34.8335 16.6666 37.7437 16.6666 41.3335C16.6666 42.1619 15.9951 42.8335 15.1666 42.8335C14.3382 42.8335 13.6666 42.1619 13.6666 41.3335Z" fill="white"/>
<path fill-rule="evenodd" clip-rule="evenodd" d="M36.3334 26.6665C36.3334 25.8381 37.0049 25.1665 37.8334 25.1665H48.5C49.3285 25.1665 50 25.8381 50 26.6665C50 27.4949 49.3285 28.1665 48.5 28.1665H37.8334C37.0049 28.1665 36.3334 27.4949 36.3334 26.6665Z" fill="white"/>
<path fill-rule="evenodd" clip-rule="evenodd" d="M39.5 37.3335C39.5 36.7812 39.9477 36.3335 40.5 36.3335H48.5C49.0523 36.3335 49.5 36.7812 49.5 37.3335C49.5 37.8858 49.0523 38.3335 48.5 38.3335H40.5C39.9477 38.3335 39.5 37.8858 39.5 37.3335Z" fill="white"/>
</svg>
