<svg width="57" height="46" viewBox="0 0 57 46" fill="none" xmlns="http://www.w3.org/2000/svg">
<path fill-rule="evenodd" clip-rule="evenodd" d="M4.50004 3.1665C3.85571 3.1665 3.33337 3.68884 3.33337 4.33317V41.6665C3.33337 42.3108 3.85571 42.8332 4.50004 42.8332H52.5C53.1444 42.8332 53.6667 42.3108 53.6667 41.6665V4.33317C53.6667 3.68884 53.1444 3.1665 52.5 3.1665H4.50004ZM0.333374 4.33317C0.333374 2.03198 2.19885 0.166504 4.50004 0.166504H52.5C54.8012 0.166504 56.6667 2.03198 56.6667 4.33317V41.6665C56.6667 43.9677 54.8012 45.8332 52.5 45.8332H4.50004C2.19885 45.8332 0.333374 43.9677 0.333374 41.6665V4.33317Z" fill="white"/>
<path fill-rule="evenodd" clip-rule="evenodd" d="M32.3334 12.3335C32.3334 11.5051 33.0049 10.8335 33.8334 10.8335H44.5C45.3285 10.8335 46 11.5051 46 12.3335V23.0002C46 23.8286 45.3285 24.5002 44.5 24.5002H33.8334C33.0049 24.5002 32.3334 23.8286 32.3334 23.0002V12.3335ZM35.3334 13.8335V21.5002H43V13.8335H35.3334Z" fill="white"/>
<path fill-rule="evenodd" clip-rule="evenodd" d="M11 33.6665C11 32.8381 11.6716 32.1665 12.5 32.1665H44.5C45.3284 32.1665 46 32.8381 46 33.6665C46 34.4949 45.3284 35.1665 44.5 35.1665H12.5C11.6716 35.1665 11 34.4949 11 33.6665Z" fill="white"/>
<path fill-rule="evenodd" clip-rule="evenodd" d="M11 12.3335C11 11.5051 11.6716 10.8335 12.5 10.8335H20.5C21.3284 10.8335 22 11.5051 22 12.3335C22 13.1619 21.3284 13.8335 20.5 13.8335H12.5C11.6716 13.8335 11 13.1619 11 12.3335Z" fill="white"/>
<path fill-rule="evenodd" clip-rule="evenodd" d="M11.5 23C11.5 22.4477 11.9477 22 12.5 22H20.5C21.0523 22 21.5 22.4477 21.5 23C21.5 23.5523 21.0523 24 20.5 24H12.5C11.9477 24 11.5 23.5523 11.5 23Z" fill="white"/>
</svg>
