<svg width="24" height="24" viewBox="0 0 24 24" fill="none" xmlns="http://www.w3.org/2000/svg">
<circle cx="12" cy="12" r="12" fill="#ED145B"/>
<path d="M13.1523 12.0884C13.1407 12.0768 13.1315 12.063 13.1252 12.0478C13.1189 12.0326 13.1156 12.0164 13.1156 11.9999C13.1156 11.9835 13.1189 11.9672 13.1252 11.952C13.1315 11.9368 13.1407 11.923 13.1523 11.9114L17.7837 7.28062C17.9243 7.13979 18.0032 6.94887 18.0031 6.74986C18.0029 6.55084 17.9237 6.36003 17.7829 6.21941C17.6421 6.07878 17.4512 5.99986 17.2521 6C17.0531 6.00014 16.8623 6.07933 16.7217 6.22016L12.0909 10.849C12.0793 10.8606 12.0655 10.8698 12.0503 10.8762C12.0351 10.8825 12.0188 10.8857 12.0024 10.8857C11.9859 10.8857 11.9697 10.8825 11.9545 10.8762C11.9393 10.8698 11.9255 10.8606 11.9139 10.849L7.28308 6.22016C7.21345 6.15049 7.13077 6.09523 7.03979 6.05751C6.9488 6.0198 6.85127 6.00038 6.75277 6.00035C6.55385 6.00031 6.36306 6.07928 6.22237 6.21991C6.08168 6.36053 6.00261 6.55129 6.00256 6.75021C6.00252 6.94913 6.08149 7.13992 6.22212 7.28062L10.8524 11.9114C10.8641 11.923 10.8733 11.9368 10.8796 11.952C10.8859 11.9672 10.8892 11.9835 10.8892 11.9999C10.8892 12.0164 10.8859 12.0326 10.8796 12.0478C10.8733 12.063 10.8641 12.0768 10.8524 12.0884L6.22212 16.7197C6.15249 16.7894 6.09726 16.8721 6.05959 16.9631C6.02192 17.0541 6.00254 17.1516 6.00256 17.2501C6.00261 17.4491 6.08168 17.6398 6.22237 17.7804C6.29203 17.8501 6.37473 17.9053 6.46573 17.943C6.55674 17.9806 6.65428 18 6.75277 18C6.95169 18 7.14245 17.9209 7.28308 17.7802L11.9139 13.1489C11.9255 13.1372 11.9393 13.128 11.9545 13.1217C11.9697 13.1154 11.9859 13.1122 12.0024 13.1122C12.0188 13.1122 12.0351 13.1154 12.0503 13.1217C12.0655 13.128 12.0793 13.1372 12.0909 13.1489L16.7217 17.7802C16.8623 17.9209 17.0531 18 17.252 18C17.4509 18 17.6417 17.9211 17.7824 17.7804C17.9231 17.6398 18.0022 17.4491 18.0022 17.2501C18.0023 17.0512 17.9233 16.8604 17.7827 16.7197L13.1523 12.0884Z" fill="white"/>
<path fill-rule="evenodd" clip-rule="evenodd" d="M18.1372 7.63419L13.7709 12L18.1362 16.3662C18.3706 16.6007 18.5023 16.9187 18.5022 17.2503C18.5021 17.5818 18.3704 17.8997 18.1359 18.1341C17.9014 18.3685 17.5834 18.5001 17.2519 18.5C16.9204 18.4999 16.6025 18.3682 16.3681 18.1337C16.3681 18.1337 16.3681 18.1338 16.3681 18.1337L12.0024 13.7675L7.63671 18.1337C7.63669 18.1337 7.63673 18.1336 7.63671 18.1337C7.40235 18.3681 7.08439 18.4999 6.75289 18.5C6.58874 18.5 6.42618 18.4677 6.2745 18.405C6.12282 18.3422 5.985 18.2501 5.8689 18.1341C5.63442 17.8997 5.50264 17.5818 5.50256 17.2503C5.50252 17.0861 5.53482 16.9235 5.5976 16.7719C5.66039 16.6202 5.75243 16.4824 5.86848 16.3663L10.2339 11.9999L5.86855 7.63415C5.63417 7.39967 5.50249 7.08162 5.50256 6.75009C5.50264 6.41856 5.63442 6.10064 5.8689 5.86627C6.10338 5.6319 6.42136 5.50028 6.75289 5.50035C6.91705 5.50039 7.07959 5.53276 7.23124 5.59562C7.38281 5.65845 7.52054 5.7505 7.63655 5.86653C7.63661 5.86658 7.6365 5.86648 7.63655 5.86653L12.0024 10.2305L16.3679 5.86685C16.3679 5.8668 16.3678 5.86691 16.3679 5.86685C16.6022 5.63229 16.9202 5.50023 17.2518 5.5C17.5834 5.49977 17.9015 5.63128 18.1362 5.86561C18.3709 6.09993 18.5028 6.41788 18.5031 6.7495C18.5033 7.08113 18.3715 7.39953 18.1372 7.63419ZM16.7217 6.22016C16.8623 6.07933 17.0531 6.00014 17.2521 6C17.4512 5.99986 17.6421 6.07878 17.7829 6.21941C17.9237 6.36003 18.0029 6.55084 18.0031 6.74986C18.0032 6.94887 17.9243 7.13979 17.7837 7.28062L13.1523 11.9114C13.1407 11.923 13.1315 11.9368 13.1252 11.952C13.1189 11.9672 13.1156 11.9835 13.1156 11.9999C13.1156 12.0164 13.1189 12.0326 13.1252 12.0478C13.1315 12.063 13.1407 12.0768 13.1523 12.0884L17.7827 16.7197C17.9233 16.8604 18.0023 17.0512 18.0022 17.2501C18.0022 17.4491 17.9231 17.6398 17.7824 17.7804C17.6417 17.9211 17.4509 18 17.252 18C17.0531 18 16.8623 17.9209 16.7217 17.7802L12.0909 13.1489C12.0793 13.1372 12.0655 13.128 12.0503 13.1217C12.0351 13.1154 12.0188 13.1122 12.0024 13.1122C11.9859 13.1122 11.9697 13.1154 11.9545 13.1217C11.9393 13.128 11.9255 13.1372 11.9139 13.1489L7.28308 17.7802C7.14245 17.9209 6.95169 18 6.75277 18C6.65428 18 6.55674 17.9806 6.46573 17.943C6.37473 17.9053 6.29203 17.8501 6.22237 17.7804C6.08168 17.6398 6.00261 17.4491 6.00256 17.2501C6.00254 17.1516 6.02192 17.0541 6.05959 16.9631C6.09726 16.8721 6.15249 16.7894 6.22212 16.7197L10.8524 12.0884C10.8641 12.0768 10.8733 12.063 10.8796 12.0478C10.8859 12.0326 10.8892 12.0164 10.8892 11.9999C10.8892 11.9835 10.8859 11.9672 10.8796 11.952C10.8733 11.9368 10.8641 11.923 10.8524 11.9114L6.22212 7.28062C6.08149 7.13992 6.00252 6.94913 6.00256 6.75021C6.00261 6.55129 6.08168 6.36053 6.22237 6.21991C6.36306 6.07928 6.55385 6.00031 6.75277 6.00035C6.85127 6.00038 6.9488 6.0198 7.03979 6.05751C7.13077 6.09523 7.21345 6.15049 7.28308 6.22016L11.9139 10.849C11.9255 10.8606 11.9393 10.8698 11.9545 10.8762C11.9697 10.8825 11.9859 10.8857 12.0024 10.8857C12.0188 10.8857 12.0351 10.8825 12.0503 10.8762C12.0655 10.8698 12.0793 10.8606 12.0909 10.849L16.7217 6.22016ZM10.4993 12.2654C10.4995 12.2656 10.4992 12.2653 10.4993 12.2654V12.2654Z" fill="white"/>
</svg>
