<svg width="20" height="20" viewBox="0 0 20 20" fill="none" xmlns="http://www.w3.org/2000/svg">
<path fill-rule="evenodd" clip-rule="evenodd" d="M1.41275 6.55451L1.41254 6.55704C1.30414 7.8466 1.24902 8.98464 1.24902 9.96826C1.24902 10.9638 1.30548 12.1177 1.41652 13.4267C1.55587 15.0694 2.87521 16.3636 4.52038 16.4712C6.50945 16.6013 8.33599 16.6667 9.99902 16.6667C11.6623 16.6667 13.4895 16.6013 15.4796 16.4711C17.1254 16.3635 18.445 15.0686 18.5837 13.4252C18.6933 12.1253 18.749 10.9722 18.749 9.96826C18.749 8.9765 18.6947 7.83908 18.5876 6.55859C18.4485 4.89452 17.0996 3.59019 15.4317 3.50708C13.1162 3.39172 11.303 3.33334 9.99902 3.33334C8.69519 3.33334 6.88265 3.39168 4.5682 3.50704C2.90187 3.59011 1.55373 4.89233 1.41275 6.55451ZM8.11916 7.50622C8.48603 6.96063 9.22571 6.8157 9.77132 7.18255L12.5202 9.03089C12.6508 9.11875 12.7627 9.23166 12.8492 9.36249C13.2117 9.91089 13.0611 10.6495 12.5125 11.0121L9.76364 12.8289C9.56881 12.9577 9.34037 13.0263 9.10706 13.0263C8.44962 13.0263 7.91661 12.4933 7.91661 11.8359V8.17048C7.91661 7.93375 7.98739 7.70235 8.11916 7.50622Z" fill="#FFFCCC"/>
</svg>
