<svg width="20" height="18" viewBox="0 0 20 18" fill="none" xmlns="http://www.w3.org/2000/svg">
<path fill-rule="evenodd" clip-rule="evenodd" d="M9.33324 0H10.6672V2.666H12.0002V11.333H8.00024V2.666H9.33324V0ZM10.6672 12.666H9.33324V16H10.6672V12.666ZM1.33324 2H2.66724V4.666H1.33324V2ZM2.66724 7.333H1.33324V13.333H2.66724V7.333ZM0.000244141 6V14.666H1.33324V18H2.66724V14.666H4.00024V6H0.000244141ZM18.6672 2H17.3332V4.666H18.6672V2ZM17.3332 7.333H18.6672V13.333H17.3332V7.333ZM16.0002 14.666V6H20.0002V14.666H18.6672V18H17.3332V14.666H16.0002Z" fill="#CAE2F6"/>
</svg>
