<svg width="24" height="24" viewBox="0 0 24 24" fill="none" xmlns="http://www.w3.org/2000/svg">
<path fill-rule="evenodd" clip-rule="evenodd" d="M0.225173 1.07805C0 1.51153 0 2.08102 0 3.22V20.78C0 21.919 0 22.4885 0.225173 22.9219C0.414924 23.2872 0.712765 23.5851 1.07805 23.7748C1.51153 24 2.08102 24 3.22 24H20.78C21.919 24 22.4885 24 22.9219 23.7748C23.2872 23.5851 23.5851 23.2872 23.7748 22.9219C24 22.4885 24 21.919 24 20.78V3.22C24 2.08102 24 1.51153 23.7748 1.07805C23.5851 0.712765 23.2872 0.414924 22.9219 0.225173C22.4885 0 21.919 0 20.78 0H3.22C2.08102 0 1.51153 0 1.07805 0.225173C0.712765 0.414924 0.414924 0.712765 0.225173 1.07805ZM7 9C6.44772 9 6 9.44772 6 10V18C6 18.5523 6.44772 19 7 19H8C8.55228 19 9 18.5523 9 18V10C9 9.44771 8.55229 9 8 9H7ZM11 6C11 5.44772 11.4477 5 12 5H13C13.5523 5 14 5.44772 14 6V18C14 18.5523 13.5523 19 13 19H12C11.4477 19 11 18.5523 11 18V6ZM17 13C16.4477 13 16 13.4477 16 14V18C16 18.5523 16.4477 19 17 19H18C18.5523 19 19 18.5523 19 18V14C19 13.4477 18.5523 13 18 13H17Z" fill="#FFFCCC"/>
</svg>
