<svg width="24" height="24" viewBox="0 0 24 24" fill="none" xmlns="http://www.w3.org/2000/svg">
<path fill-rule="evenodd" clip-rule="evenodd" d="M0 1.58C0 1.03881 0 0.768212 0.101972 0.560061C0.199607 0.360764 0.360764 0.199607 0.560061 0.101972C0.768212 0 1.03881 0 1.58 0H16.42C16.9612 0 17.2318 0 17.4399 0.101972C17.6392 0.199607 17.8004 0.360764 17.898 0.560061C18 0.768212 18 1.03881 18 1.58V22.42C18 22.9612 18 23.2318 17.898 23.4399C17.8004 23.6392 17.6392 23.8004 17.4399 23.898C17.2318 24 16.9612 24 16.42 24H1.58C1.03881 24 0.768212 24 0.560061 23.898C0.360764 23.8004 0.199607 23.6392 0.101972 23.4399C0 23.2318 0 22.9612 0 22.42V1.58ZM20 6.79C20 6.5194 20 6.38411 20.051 6.28003C20.0998 6.18038 20.1804 6.0998 20.28 6.05099C20.3841 6 20.5194 6 20.79 6H22.42C22.9612 6 23.2318 6 23.4399 6.10197C23.6392 6.19961 23.8004 6.36076 23.898 6.56006C24 6.76821 24 7.03881 24 7.58V22.42C24 22.9612 24 23.2318 23.898 23.4399C23.8004 23.6392 23.6392 23.8004 23.4399 23.898C23.2318 24 22.9612 24 22.42 24H20.79C20.5194 24 20.3841 24 20.28 23.949C20.1804 23.9002 20.0998 23.8196 20.051 23.72C20 23.6159 20 23.4806 20 23.21V6.79ZM4 10C3.44772 10 3 10.4477 3 11C3 11.5523 3.44772 12 4 12H14C14.5523 12 15 11.5523 15 11C15 10.4477 14.5523 10 14 10H4ZM3 6C3 5.44772 3.44772 5 4 5H14C14.5523 5 15 5.44772 15 6C15 6.55228 14.5523 7 14 7H4C3.44772 7 3 6.55228 3 6ZM4 15C3.44772 15 3 15.4477 3 16C3 16.5523 3.44772 17 4 17H11C11.5523 17 12 16.5523 12 16C12 15.4477 11.5523 15 11 15H4Z" fill="#979797"/>
</svg>
