<svg width="24" height="24" viewBox="0 0 24 24" fill="none" xmlns="http://www.w3.org/2000/svg">
<path fill-rule="evenodd" clip-rule="evenodd" d="M24 7.72727V15.4545C24 16.3818 23.4 17 22.5 17H1.5C0.6 17 0 16.3818 0 15.4545V7.72727C0 6.8 0.6 6.18182 1.5 6.18182H6V1.54545C6 0.618182 6.6 0 7.5 0H16.5C17.4 0 18 0.618182 18 1.54545V6.18182H22.5C23.4 6.18182 24 6.8 24 7.72727ZM10 3.09091C9.44772 3.09091 9 3.53862 9 4.09091V5.18182C9 5.7341 9.44772 6.18182 10 6.18182H14C14.5523 6.18182 15 5.7341 15 5.18182V4.09091C15 3.53862 14.5523 3.09091 14 3.09091H10ZM1 20C1 19.4477 1.44772 19 2 19H22C22.5523 19 23 19.4477 23 20V22.3333C23 23.3333 22.3714 24 21.4286 24H2.57143C1.62857 24 1 23.3333 1 22.3333V20Z" fill="#979797"/>
</svg>
