<svg width="20" height="20" viewBox="0 0 20 20" fill="none" xmlns="http://www.w3.org/2000/svg">
<path d="M20 12.8788V6.43939C20 5.66666 19.5 5.15151 18.75 5.15151H15V1.28788C15 0.515151 14.5 0 13.75 0H6.24999C5.49999 0 4.99999 0.515151 4.99999 1.28788V5.15151H1.25C0.499999 5.15151 0 5.66666 0 6.43939V12.8788C0 13.6515 0.499999 14.1666 1.25 14.1666H18.75C19.5 14.1666 20 13.6515 20 12.8788ZM7.49999 3.40909C7.49999 2.94885 7.87309 2.57575 8.33332 2.57575H11.6667C12.1269 2.57575 12.5 2.94885 12.5 3.40909V4.31818C12.5 4.77841 12.1269 5.15151 11.6667 5.15151H8.33332C7.87309 5.15151 7.49999 4.77841 7.49999 4.31818V3.40909Z" fill="#77797D"/>
<path d="M1.66667 15.8333C1.20643 15.8333 0.833334 16.2064 0.833334 16.6667V18.6111C0.833334 19.4444 1.35714 20 2.14286 20H17.8571C18.6428 20 19.1666 19.4444 19.1666 18.6111V16.6667C19.1666 16.2064 18.7936 15.8333 18.3333 15.8333H1.66667Z" fill="#77797D"/>
</svg>
