<svg width="20" height="20" viewBox="0 0 20 20" fill="none" xmlns="http://www.w3.org/2000/svg">
<path d="M15 5C15 7.76142 12.7614 10 10 10C7.23858 10 5 7.76142 5 5C5 2.23858 7.23858 0 10 0C12.7614 0 15 2.23858 15 5Z" fill="#77797D"/>
<path d="M3.60586 13.7105C5.42068 12.3801 7.67686 11.659 10 11.6667C12.3231 11.659 14.5793 12.3801 16.3941 13.7105C18.209 15.0409 19.4733 16.9006 19.9773 18.9809C20.0076 19.1029 20.0076 19.2297 19.9772 19.3517C19.9468 19.4737 19.8868 19.5879 19.8018 19.6858C19.7167 19.7837 19.6087 19.8628 19.4858 19.9172C19.3629 19.9716 19.2282 19.9999 19.0918 20H0.908225C0.771761 19.9999 0.637078 19.9716 0.514166 19.9172C0.391254 19.8628 0.283265 19.7837 0.198208 19.6858C0.113151 19.5879 0.0532075 19.4737 0.0228227 19.3517C-0.00756206 19.2297 -0.00760786 19.1029 0.0226875 18.9809C0.526713 16.9006 1.79104 15.0409 3.60586 13.7105Z" fill="#77797D"/>
</svg>
