<svg width="24" height="24" viewBox="0 0 24 24" fill="none" xmlns="http://www.w3.org/2000/svg">
<path fill-rule="evenodd" clip-rule="evenodd" d="M18 6C18 9.31371 15.3137 12 12 12C8.68629 12 6 9.31371 6 6C6 2.68629 8.68629 0 12 0C15.3137 0 18 2.68629 18 6ZM4.32703 16.4526C6.50482 14.8562 9.21224 13.9908 12 14.0001C14.7878 13.9908 17.4952 14.8562 19.673 16.4526C21.8507 18.0491 23.3679 20.2807 23.9728 22.777C24.0091 22.9235 24.0091 23.0756 23.9726 23.222C23.9362 23.3685 23.8642 23.5055 23.7621 23.623C23.6601 23.7405 23.5305 23.8353 23.383 23.9006C23.2355 23.9659 23.0739 23.9998 22.9101 24H1.08987C0.926113 23.9998 0.764494 23.9659 0.616999 23.9006C0.469505 23.8353 0.339918 23.7405 0.23785 23.623C0.135781 23.5055 0.063849 23.3685 0.0273873 23.222C-0.00907447 23.0756 -0.00912943 22.9235 0.0272249 22.777C0.632055 20.2807 2.14925 18.0491 4.32703 16.4526Z" fill="#979797"/>
</svg>
