<svg width="8" height="6" viewBox="0 0 8 6" fill="none" xmlns="http://www.w3.org/2000/svg">
<path d="M7.9122 0.304359C7.85282 0.212018 7.76649 0.135172 7.66207 0.0816908C7.55764 0.0282098 7.43887 1.6915e-05 7.31792 0H0.68196C0.561079 5.14152e-05 0.442383 0.0282474 0.338019 0.0817026C0.233654 0.135158 0.147368 0.211953 0.0879894 0.30423C0.0286107 0.396508 -0.00172854 0.500954 7.6053e-05 0.606882C0.00188065 0.712809 0.0357643 0.816415 0.09826 0.907098L3.41624 5.71167C3.47702 5.79967 3.56267 5.87244 3.66493 5.92295C3.76718 5.97346 3.88257 6 3.99994 6C4.11732 6 4.23271 5.97346 4.33496 5.92295C4.43721 5.87244 4.52287 5.79967 4.58364 5.71167L7.90163 0.907098C7.96414 0.816454 7.99806 0.712884 7.99992 0.606982C8.00178 0.501079 7.97151 0.396645 7.9122 0.304359Z" fill="white" fill-opacity="0.4"/>
</svg>
