<svg width="16" height="16" viewBox="0 0 16 16" fill="none" xmlns="http://www.w3.org/2000/svg">
<path d="M7.84333 0.244081L0.533333 6.67942C0.212422 6.99039 0.0217607 7.41175 -3.43515e-07 7.85808C0.0220248 8.30435 0.212644 8.72562 0.533333 9.03675L7.84333 15.4721C7.93582 15.5561 8.04409 15.6209 8.16185 15.6626C8.2796 15.7044 8.40449 15.7223 8.52924 15.7153C8.65399 15.7084 8.7761 15.6766 8.88848 15.622C9.00085 15.5674 9.10124 15.491 9.18379 15.3972C9.26634 15.3034 9.32942 15.1942 9.36933 15.0758C9.40925 14.9574 9.42522 14.8322 9.4163 14.7076C9.40739 14.583 9.37377 14.4614 9.31741 14.3498C9.26104 14.2383 9.18306 14.1392 9.088 14.0581L3.444 9.09141C3.41871 9.06897 3.40084 9.03937 3.39277 9.00653C3.3847 8.97369 3.3868 8.93917 3.39881 8.90756C3.41082 8.87595 3.43216 8.84874 3.46 8.82954C3.48783 8.81035 3.52085 8.80007 3.55467 8.80008L15.058 8.80008C15.3078 8.80008 15.5474 8.70083 15.7241 8.52418C15.9008 8.34752 16 8.10792 16 7.85808C16 7.60825 15.9008 7.36865 15.7241 7.19199C15.5474 7.01533 15.3078 6.91608 15.058 6.91608L3.55467 6.91608C3.52076 6.91611 3.48765 6.90579 3.45975 6.88651C3.43186 6.86723 3.41051 6.8399 3.39856 6.80817C3.38661 6.77644 3.38462 6.74181 3.39285 6.70892C3.40109 6.67603 3.41917 6.64643 3.44467 6.62408L9.088 1.65808C9.18306 1.577 9.26104 1.47782 9.31741 1.36631C9.37377 1.25481 9.40739 1.1332 9.4163 1.00858C9.42522 0.883953 9.40925 0.758799 9.36933 0.640405C9.32942 0.522011 9.26634 0.41274 9.18379 0.318956C9.10124 0.225172 9.00085 0.148747 8.88848 0.0941311C8.7761 0.0395151 8.65399 0.00779972 8.52924 0.000831231C8.40449 -0.00613726 8.2796 0.0117813 8.16185 0.0535427C8.04409 0.0953041 7.93582 0.160074 7.84333 0.244081Z" fill="#C4C4C4" fill-opacity="0.5"/>
</svg>
