<svg width="16" height="16" viewBox="0 0 16 16" fill="none" xmlns="http://www.w3.org/2000/svg">
<path d="M12.5474 10.8113C12.5002 10.7631 12.4707 10.7004 12.4638 10.6333C12.4568 10.5661 12.4729 10.4987 12.5093 10.4419C13.4095 9.03227 13.7576 7.33997 13.4869 5.68951C13.2162 4.03904 12.3457 2.54662 11.0424 1.49845C9.73907 0.450277 8.09467 -0.0798438 6.42455 0.00975421C4.75444 0.0993522 3.1762 0.802361 1.9925 1.98395C0.8088 3.16555 0.102983 4.74254 0.0104125 6.41249C-0.0821579 8.08244 0.445035 9.72778 1.49088 11.033C2.53673 12.3381 4.02761 13.2113 5.67759 13.4849C7.32756 13.7586 9.02048 13.4134 10.4317 12.5157C10.4883 12.479 10.5557 12.4626 10.6229 12.4693C10.6901 12.476 10.7529 12.5054 10.8011 12.5527L13.8861 15.6389C14.117 15.87 14.4303 15.9999 14.757 16C15.0837 16.0001 15.397 15.8705 15.6281 15.6395C15.8592 15.4086 15.9891 15.0953 15.9892 14.7687C15.9893 14.442 15.8596 14.1286 15.6287 13.8975L12.5474 10.8113ZM6.79865 11.1143C5.94614 11.1143 5.11278 10.8615 4.40394 10.3878C3.69511 9.91422 3.14264 9.24103 2.8164 8.45341C2.49016 7.6658 2.4048 6.79913 2.57112 5.963C2.73743 5.12688 3.14795 4.35884 3.75077 3.75603C4.35358 3.15322 5.12161 2.74269 5.95774 2.57638C6.79387 2.41006 7.66054 2.49542 8.44815 2.82166C9.23577 3.1479 9.90895 3.70037 10.3826 4.40921C10.8562 5.11804 11.109 5.95141 11.109 6.80391C11.109 7.94709 10.6549 9.04345 9.84653 9.85179C9.03818 10.6601 7.94183 11.1143 6.79865 11.1143Z"/>
</svg>
