<svg width="16" height="16" viewBox="0 0 16 16" fill="none" xmlns="http://www.w3.org/2000/svg">
<path d="M15.9737 6.05494C15.9108 5.85231 15.7439 5.70454 15.5433 5.67375L10.6613 4.92929L8.47839 0.286731C8.29866 -0.0955771 7.70133 -0.0955771 7.5216 0.286731L5.3387 4.92929L0.456642 5.67375C0.256112 5.70454 0.0891811 5.85231 0.0262487 6.05494C-0.0366837 6.25757 0.0155822 6.47979 0.16118 6.62869L3.69393 10.2424L2.86034 15.3457C2.82621 15.5556 2.90834 15.7677 3.0726 15.8931C3.2374 16.0185 3.455 16.0341 3.63419 15.9356L7.99999 13.5265L12.3663 15.9356C12.4442 15.9787 12.5295 16 12.6143 16C12.7247 16 12.8351 15.9642 12.9279 15.8931C13.0922 15.7677 13.1743 15.5556 13.1402 15.3457L12.3066 10.2424L15.8393 6.62869C15.9844 6.47979 16.0367 6.25757 15.9737 6.05494Z" fill="#C4C4C4" fill-opacity="0.5"/>
</svg>
