<svg width="48" height="48" viewBox="0 0 48 48" fill="none" xmlns="http://www.w3.org/2000/svg">
<path fill-rule="evenodd" clip-rule="evenodd" d="M46 24C46 36.1503 36.1503 46 24 46C11.8497 46 2 36.1503 2 24C2 11.8497 11.8497 2 24 2C36.1503 2 46 11.8497 46 24ZM48 24C48 37.2548 37.2548 48 24 48C10.7452 48 0 37.2548 0 24C0 10.7452 10.7452 0 24 0C37.2548 0 48 10.7452 48 24ZM32.2299 24.9241H25.2589V32.3973C25.2589 33.0852 24.7013 33.6429 24.0134 33.6429C23.3255 33.6429 22.7679 33.0852 22.7679 32.3973V24.9241H15.817C15.1291 24.9241 14.5714 24.3665 14.5714 23.6786C14.5714 22.9907 15.1291 22.433 15.817 22.433H22.7679V14.9598C22.7679 14.2719 23.3255 13.7143 24.0134 13.7143C24.7013 13.7143 25.2589 14.2719 25.2589 14.9598V22.433H32.2299C32.9178 22.433 33.4754 22.9907 33.4754 23.6786C33.4754 24.3665 32.9178 24.9241 32.2299 24.9241Z" fill="#FFFCCC"/>
</svg>
