<svg width="12" height="16" viewBox="0 0 12 16" fill="none" xmlns="http://www.w3.org/2000/svg">
<path d="M3.89225 5.33309H7.89225C8.06906 5.33309 8.23863 5.26285 8.36366 5.13783C8.48868 5.0128 8.55892 4.84323 8.55892 4.66642C8.55892 4.48961 8.48868 4.32004 8.36366 4.19502C8.23863 4.06999 8.06906 3.99976 7.89225 3.99976H3.89225C3.71544 3.99976 3.54587 4.06999 3.42085 4.19502C3.29582 4.32004 3.22559 4.48961 3.22559 4.66642C3.22559 4.84323 3.29582 5.0128 3.42085 5.13783C3.54587 5.26285 3.71544 5.33309 3.89225 5.33309Z" fill="white"/>
<path d="M4.20602 2.99981C4.21614 3.08087 4.25569 3.15539 4.31714 3.20922C4.37858 3.26305 4.45766 3.29244 4.53935 3.29181H7.24868C7.33037 3.29244 7.40945 3.26305 7.4709 3.20922C7.53235 3.15539 7.57189 3.08087 7.58202 2.99981C7.72565 2.27943 7.99801 1.59086 8.38602 0.96714C8.41973 0.906158 8.43349 0.836143 8.42535 0.766937C8.41722 0.697731 8.3876 0.632815 8.34066 0.581315C8.29372 0.529814 8.23182 0.494318 8.16367 0.479818C8.09551 0.465317 8.02452 0.472541 7.96068 0.500473L6.71935 1.03381C6.69894 1.0425 6.67699 1.04703 6.65481 1.04713C6.63262 1.04723 6.61064 1.0429 6.59015 1.03439C6.56966 1.02589 6.55107 1.01337 6.53548 0.99759C6.51989 0.981805 6.5076 0.963067 6.49935 0.942473L6.20535 0.20914C6.18056 0.147385 6.13785 0.094464 6.08272 0.0571912C6.02759 0.0199185 5.96256 0 5.89602 0C5.82947 0 5.76445 0.0199185 5.70932 0.0571912C5.65419 0.094464 5.61148 0.147385 5.58668 0.20914L5.29268 0.942473C5.28443 0.963067 5.27215 0.981805 5.25655 0.99759C5.24096 1.01337 5.22238 1.02589 5.20189 1.03439C5.18139 1.0429 5.15941 1.04723 5.13723 1.04713C5.11504 1.04703 5.0931 1.0425 5.07268 1.03381L3.82535 0.50314C3.76151 0.475208 3.69052 0.467984 3.62237 0.482485C3.55421 0.496985 3.49231 0.532481 3.44537 0.583981C3.39843 0.635482 3.36881 0.700398 3.36068 0.769604C3.35254 0.838809 3.3663 0.908825 3.40002 0.969807C3.78843 1.59257 4.06146 2.28022 4.20602 2.99981Z" fill="white"/>
<path d="M8.184 6.08042C8.1156 6.02828 8.03201 5.99995 7.946 5.99976H3.838C3.75194 5.99965 3.66826 6.02801 3.6 6.08042C1.89933 7.38042 8.47368e-07 9.68042 8.47368e-07 11.6804C-0.00133249 14.4998 1.57067 15.9998 5.892 15.9998C10.2133 15.9998 11.7853 14.4998 11.7853 11.6784C11.7853 9.68176 9.88533 7.38042 8.184 6.08042ZM6.52867 13.4198C6.4903 13.4268 6.4556 13.447 6.43063 13.477C6.40566 13.507 6.39199 13.5447 6.392 13.5838V13.8331C6.392 13.9657 6.33932 14.0929 6.24555 14.1866C6.15179 14.2804 6.02461 14.3331 5.892 14.3331C5.75939 14.3331 5.63222 14.2804 5.53845 14.1866C5.44468 14.0929 5.392 13.9657 5.392 13.8331V13.6178C5.392 13.5736 5.37444 13.5312 5.34318 13.4999C5.31193 13.4686 5.26954 13.4511 5.22533 13.4511H4.83333C4.70073 13.4511 4.57355 13.3984 4.47978 13.3046C4.38601 13.2109 4.33333 13.0837 4.33333 12.9511C4.33333 12.8185 4.38601 12.6913 4.47978 12.5975C4.57355 12.5038 4.70073 12.4511 4.83333 12.4511H6.268C6.372 12.4512 6.4728 12.4151 6.55305 12.3489C6.63331 12.2828 6.688 12.1907 6.70773 12.0886C6.72746 11.9865 6.71099 11.8807 6.66115 11.7894C6.61132 11.6981 6.53123 11.6271 6.43467 11.5884L4.978 11.0064C4.68686 10.8905 4.44139 10.6829 4.2787 10.4151C4.11602 10.1472 4.04497 9.83369 4.0763 9.52188C4.10763 9.21008 4.23964 8.91695 4.45236 8.68683C4.66508 8.45672 4.94695 8.30212 5.25533 8.24642C5.29371 8.2394 5.3284 8.21914 5.35337 8.18918C5.37834 8.15921 5.39201 8.12143 5.392 8.08242V7.83309C5.392 7.70048 5.44468 7.5733 5.53845 7.47954C5.63222 7.38577 5.75939 7.33309 5.892 7.33309C6.02461 7.33309 6.15179 7.38577 6.24555 7.47954C6.33932 7.5733 6.392 7.70048 6.392 7.83309V8.04842C6.392 8.09263 6.40956 8.13502 6.44082 8.16627C6.47207 8.19753 6.51446 8.21509 6.55867 8.21509H6.95067C7.08328 8.21509 7.21045 8.26777 7.30422 8.36154C7.39799 8.4553 7.45067 8.58248 7.45067 8.71509C7.45067 8.8477 7.39799 8.97487 7.30422 9.06864C7.21045 9.16241 7.08328 9.21509 6.95067 9.21509H5.516C5.412 9.21497 5.3112 9.25109 5.23095 9.31725C5.15069 9.3834 5.096 9.47545 5.07627 9.57757C5.05654 9.67968 5.07301 9.78548 5.12285 9.87677C5.17268 9.96806 5.25277 10.0391 5.34933 10.0778L6.806 10.6598C7.09714 10.7757 7.34261 10.9833 7.5053 11.2511C7.66798 11.519 7.73903 11.8325 7.7077 12.1443C7.67637 12.4561 7.54436 12.7492 7.33164 12.9793C7.11892 13.2095 6.83705 13.3641 6.52867 13.4198Z" fill="white"/>
</svg>
