<svg width="25" height="26" viewBox="0 0 25 26" fill="none" xmlns="http://www.w3.org/2000/svg">
<path fill-rule="evenodd" clip-rule="evenodd" d="M13.2723 0.458305L17.3223 5.23731C17.5903 5.55231 17.5513 6.02631 17.2343 6.29431C17.0933 6.41331 16.9223 6.47131 16.7503 6.47131C16.5373 6.47131 16.3263 6.38231 16.1773 6.20631L13.2503 2.75131V16.2503C13.2503 16.6643 12.9143 17.0003 12.5003 17.0003C12.0863 17.0003 11.7503 16.6643 11.7503 16.2503V2.76031L8.8223 6.21531C8.6743 6.38931 8.4623 6.47931 8.2503 6.47931C8.0783 6.47931 7.9063 6.42131 7.7643 6.30131C7.4493 6.03431 7.4103 5.56031 7.6773 5.24431L11.7283 0.465305C11.7321 0.460887 11.7374 0.454078 11.7443 0.4453C11.8218 0.346797 12.0945 0.000305176 12.5003 0.000305176C12.9122 0.000305176 13.176 0.336054 13.2554 0.437116C13.2625 0.446225 13.2682 0.453427 13.2723 0.458305ZM6.75 25.9971H18.25C19.767 25.9971 21 24.7641 21 23.2471V11.7471C21 10.2301 19.767 8.99711 18.25 8.99711H16.233V10.4971H18.25C18.939 10.4971 19.5 11.0581 19.5 11.7471V23.2471C19.5 23.9361 18.939 24.4971 18.25 24.4971H6.75C6.061 24.4971 5.5 23.9361 5.5 23.2471V11.7471C5.5 11.0581 6.061 10.4971 6.75 10.4971H8.809V8.99711H6.75C5.233 8.99711 4 10.2301 4 11.7471V23.2471C4 24.7641 5.233 25.9971 6.75 25.9971Z" fill="white"/>
</svg>
