<svg width="16" height="10" viewBox="0 0 16 10" fill="none" xmlns="http://www.w3.org/2000/svg">
<path d="M5.3335 4.33325C4.23016 4.33325 3.34016 3.43659 3.34016 2.33325C3.34016 1.22992 4.23016 0.333252 5.3335 0.333252C6.43683 0.333252 7.3335 1.22992 7.3335 2.33325C7.3335 3.43659 6.43683 4.33325 5.3335 4.33325ZM10.6668 4.33325C9.5635 4.33325 8.6735 3.43659 8.6735 2.33325C8.6735 1.22992 9.5635 0.333252 10.6668 0.333252C11.7702 0.333252 12.6668 1.22992 12.6668 2.33325C12.6668 3.43659 11.7702 4.33325 10.6668 4.33325ZM10.6668 5.66659C12.2235 5.66659 15.3335 6.44659 15.3335 7.99992V9.66659H6.00016V7.99992C6.00016 6.44659 9.11016 5.66659 10.6668 5.66659ZM5.3335 5.66659C5.52683 5.66659 5.7435 5.67992 5.97683 5.70325C5.2035 6.25992 4.66683 7.00992 4.66683 7.99992V9.66659H0.66683V7.99992C0.66683 6.44659 3.77683 5.66659 5.3335 5.66659Z" fill="white"/>
</svg>
