<svg width="16" height="14" viewBox="0 0 16 14" fill="none" xmlns="http://www.w3.org/2000/svg">
<path fill-rule="evenodd" clip-rule="evenodd" d="M7.50121 0.25H8.50171V2.2495H9.50146V8.74975H6.50146V2.2495H7.50121V0.25ZM8.50171 9.7495H7.50121V12.25H8.50171V9.7495ZM1.50121 1.75H2.50171V3.7495H1.50121V1.75ZM2.50171 5.74975H1.50121V10.2498H2.50171V5.74975ZM0.501465 4.75V11.2495H1.50121V13.75H2.50171V11.2495H3.50146V4.75H0.501465ZM14.5017 1.75H13.5012V3.7495H14.5017V1.75ZM13.5012 5.74975H14.5017V10.2498H13.5012V5.74975ZM12.5015 11.2495V4.75H15.5015V11.2495H14.5017V13.75H13.5012V11.2495H12.5015Z" fill="white"/>
</svg>
