<svg width="13" height="10" viewBox="0 0 13 10" fill="none" xmlns="http://www.w3.org/2000/svg">
<path d="M13 7.55634C13.0001 7.64789 12.9791 7.73823 12.9386 7.82033C12.8981 7.90243 12.8392 7.97409 12.7665 8.02973C12.6938 8.08538 12.6092 8.12351 12.5194 8.14117C12.4296 8.15883 12.3369 8.15554 12.2485 8.13155L9.87862 7.48608C9.83746 7.47462 9.79432 7.47219 9.75213 7.47895C9.70995 7.48571 9.66973 7.50151 9.63421 7.52525C9.5987 7.549 9.56874 7.58015 9.54638 7.61655C9.52403 7.65295 9.5098 7.69376 9.50467 7.73617C9.4351 8.23325 9.18808 8.68839 8.80919 9.01759C8.43031 9.34679 7.94513 9.52784 7.4432 9.5273H2.0841C1.81037 9.52746 1.53929 9.47366 1.28636 9.36898C1.03344 9.2643 0.803626 9.11079 0.610069 8.91723C0.416512 8.72368 0.263004 8.49387 0.158324 8.24094C0.0536438 7.98802 -0.000156212 7.71694 3.40681e-07 7.44321V2.0841C-0.000156212 1.81037 0.0536438 1.53929 0.158324 1.28637C0.263004 1.03344 0.416512 0.803631 0.610069 0.610073C0.803626 0.416516 1.03344 0.263009 1.28636 0.158328C1.53929 0.0536483 1.81037 -0.000151711 2.0841 4.84135e-06H7.4432C7.94415 -0.00107717 8.42854 0.179242 8.80684 0.507626C9.18514 0.83601 9.43176 1.29025 9.5011 1.78637C9.50524 1.82961 9.5188 1.87141 9.54081 1.90886C9.56282 1.9463 9.59276 1.97847 9.62853 2.00312C9.66445 2.02734 9.70514 2.04358 9.74787 2.05077C9.79059 2.05796 9.83436 2.05593 9.87624 2.0448L12.2485 1.39814C12.3369 1.37415 12.4296 1.37086 12.5194 1.38852C12.6092 1.40618 12.6938 1.44431 12.7665 1.49996C12.8392 1.5556 12.8981 1.62726 12.9386 1.70936C12.9791 1.79146 13.0001 1.8818 13 1.97335V7.55634Z" fill="white"/>
</svg>
