<svg width="10" height="13" viewBox="0 0 10 13" fill="none" xmlns="http://www.w3.org/2000/svg">
<path d="M9.20833 4.33333H8.125V3.25C8.125 1.45763 6.66738 0 4.875 0C3.08263 0 1.625 1.45763 1.625 3.25V4.33333H0.541667C0.242667 4.33333 0 4.576 0 4.875V12.4583C0 12.7573 0.242667 13 0.541667 13H9.20833C9.50733 13 9.75 12.7573 9.75 12.4583V4.875C9.75 4.576 9.50733 4.33333 9.20833 4.33333ZM5.41667 9.65033V10.8333H4.33333V9.65033C3.70446 9.42608 3.25 8.83025 3.25 8.125C3.25 7.22908 3.97908 6.5 4.875 6.5C5.77092 6.5 6.5 7.22908 6.5 8.125C6.5 8.83025 6.04608 9.42608 5.41667 9.65033ZM7.04167 4.33333H2.70833V3.25C2.70833 2.05508 3.68008 1.08333 4.875 1.08333C6.06992 1.08333 7.04167 2.05508 7.04167 3.25V4.33333Z" fill="white"/>
</svg>
