<svg width="12" height="12" viewBox="0 0 12 12" fill="none" xmlns="http://www.w3.org/2000/svg">
<path d="M10.3916 8.20762C9.4995 7.88475 8.013 7.5 6 7.5C3.987 7.5 2.5005 7.88475 1.60838 8.20762C0.87075 8.47425 0.375 9.18225 0.375 9.97012V11.625C0.375 11.832 0.543 12 0.75 12H11.25C11.457 12 11.625 11.832 11.625 11.625V9.97012C11.625 9.18225 11.1293 8.47425 10.3916 8.20762Z" fill="white"/>
<path d="M6 6.75C7.65412 6.75 9 5.40412 9 3.75V3C9 1.34588 7.65412 0 6 0C4.34588 0 3 1.34588 3 3V3.75C3 5.40412 4.34588 6.75 6 6.75Z" fill="white"/>
</svg>
