<svg width="16" height="16" viewBox="0 0 16 16" fill="none" xmlns="http://www.w3.org/2000/svg">
<path d="M16.0001 9.50057C16.0003 8.88044 15.808 8.27554 15.4498 7.76935C15.0915 7.26316 14.585 6.88064 14.0001 6.67457V6.16724C14.0001 4.57594 13.368 3.04981 12.2428 1.9246C11.1175 0.799377 9.59142 0.167236 8.00013 0.167236C6.40883 0.167236 4.8827 0.799377 3.75748 1.9246C2.63227 3.04981 2.00013 4.57594 2.00013 6.16724V6.67457C1.4146 6.88099 0.907532 7.26398 0.548855 7.77074C0.190178 8.2775 -0.00244141 8.88305 -0.00244141 9.5039C-0.00244141 10.1248 0.190178 10.7303 0.548855 11.2371C0.907532 11.7438 1.4146 12.1268 2.00013 12.3332C2.15126 12.3867 2.31304 12.403 2.4718 12.3808C2.63057 12.3586 2.78168 12.2986 2.91239 12.2058C3.0431 12.113 3.14959 11.9901 3.22287 11.8476C3.29615 11.705 3.33408 11.5469 3.33346 11.3866V6.16724C3.33346 5.5544 3.45417 4.94757 3.68869 4.38138C3.92321 3.81519 4.26695 3.30074 4.70029 2.8674C5.13363 2.43406 5.64808 2.09032 6.21427 1.8558C6.78046 1.62128 7.38729 1.50057 8.00013 1.50057C8.61296 1.50057 9.2198 1.62128 9.78598 1.8558C10.3522 2.09032 10.8666 2.43406 11.3 2.8674C11.7333 3.30074 12.077 3.81519 12.3116 4.38138C12.5461 4.94757 12.6668 5.5544 12.6668 6.16724V11.3866C12.6682 11.5253 12.6986 11.6622 12.756 11.7884C12.8134 11.9147 12.8966 12.0276 13.0001 12.1199V12.4986C13.0001 13.4812 12.1395 13.8319 11.3335 13.8319H10.1481C10.0014 13.5777 9.77484 13.3791 9.50367 13.2667C9.2325 13.1544 8.93184 13.1347 8.64833 13.2107C8.36482 13.2866 8.1143 13.454 7.93562 13.6869C7.75694 13.9197 7.66009 14.2051 7.66009 14.4986C7.66009 14.7921 7.75694 15.0774 7.93562 15.3103C8.1143 15.5431 8.36482 15.7105 8.64833 15.7865C8.93184 15.8624 9.2325 15.8427 9.50367 15.7304C9.77484 15.6181 10.0014 15.4194 10.1481 15.1652H11.3335C13.0995 15.1652 14.3335 14.0686 14.3335 12.4986V12.1799C14.8327 11.9322 15.2531 11.5503 15.5475 11.0771C15.8419 10.6038 15.9986 10.0579 16.0001 9.50057Z" fill="white"/>
</svg>
