<svg width="8" height="12" viewBox="0 0 8 12" fill="none" xmlns="http://www.w3.org/2000/svg">
<path d="M1.48486 11.9502C1.75049 11.9502 1.97461 11.8589 2.15723 11.6763L7.12939 6.75391C7.36182 6.52979 7.46973 6.28906 7.46973 5.99854C7.46973 5.70801 7.36182 5.45898 7.1377 5.24316L2.15723 0.320801C1.97461 0.138184 1.75049 0.046875 1.48486 0.046875C0.953613 0.046875 0.521973 0.470215 0.521973 1.00146C0.521973 1.26709 0.629883 1.50781 0.820801 1.70703L5.18701 6.00684L0.820801 10.2983C0.629883 10.4893 0.521973 10.73 0.521973 10.9956C0.521973 11.5269 0.953613 11.9502 1.48486 11.9502Z" fill="#C4C4C4" fill-opacity="0.5"/>
</svg>
