<svg width="26" height="26" viewBox="0 0 26 26" fill="none" xmlns="http://www.w3.org/2000/svg">
<path fill-rule="evenodd" clip-rule="evenodd" d="M19.2611 6.73926C19.2611 10.197 16.458 13.0001 13.0002 13.0001C9.54241 13.0001 6.73932 10.197 6.73932 6.73926C6.73932 3.28148 9.54241 0.478394 13.0002 0.478394C16.458 0.478394 19.2611 3.28148 19.2611 6.73926ZM4.99368 17.6463C7.26615 15.9804 10.0913 15.0774 13.0003 15.0871C15.9092 15.0774 18.7344 15.9804 21.0068 17.6463C23.2793 19.3122 24.8625 21.6408 25.4936 24.2457C25.5315 24.3985 25.5315 24.5572 25.4934 24.71C25.4554 24.8628 25.3803 25.0058 25.2738 25.1284C25.1673 25.251 25.0321 25.35 24.8782 25.4181C24.7243 25.4862 24.5556 25.5216 24.3847 25.5218H1.61577C1.44489 25.5216 1.27625 25.4862 1.12234 25.4181C0.968434 25.35 0.833213 25.251 0.726706 25.1284C0.6202 25.0058 0.545141 24.8628 0.507094 24.71C0.469047 24.5572 0.468989 24.3985 0.506924 24.2457C1.13805 21.6408 2.72121 19.3122 4.99368 17.6463Z" fill="#C4C4C4" fill-opacity="0.5"/>
</svg>
