<svg width="50" height="39" viewBox="0 0 50 39" fill="none" xmlns="http://www.w3.org/2000/svg">
<path d="M48.7658 1.12154C47.6038 -0.0405138 45.8607 -0.0405138 44.6986 1.12154L14.7757 31.0445L5.18873 21.4575C4.02668 20.2955 2.2836 20.2955 1.12154 21.4575C-0.0405138 22.6196 -0.0405138 24.3626 1.12154 25.5247L12.7421 37.1453C13.3231 37.7263 14.1947 38.0168 14.7757 38.0168C15.3567 38.0168 16.2283 37.7263 16.8093 37.1453L48.7658 5.18874C49.9279 4.02668 49.9279 2.2836 48.7658 1.12154Z" fill="#252636"/>
<path d="M48.7658 1.12154C47.6038 -0.0405138 45.8607 -0.0405138 44.6986 1.12154L14.7757 31.0445L5.18873 21.4575C4.02668 20.2955 2.2836 20.2955 1.12154 21.4575C-0.0405138 22.6196 -0.0405138 24.3626 1.12154 25.5247L12.7421 37.1453C13.3231 37.7263 14.1947 38.0168 14.7757 38.0168C15.3567 38.0168 16.2283 37.7263 16.8093 37.1453L48.7658 5.18874C49.9279 4.02668 49.9279 2.2836 48.7658 1.12154Z" fill="url(#paint0_radial)"/>
<defs>
<radialGradient id="paint0_radial" cx="0" cy="0" r="1" gradientUnits="userSpaceOnUse" gradientTransform="translate(0.25 0.25) rotate(90) scale(37.7668 45.489)">
<stop stop-color="#FFFCCC" stop-opacity="0.08"/>
<stop offset="1" stop-color="#FFFCCC" stop-opacity="0"/>
</radialGradient>
</defs>
</svg>
