<svg width="84" height="70" viewBox="0 0 84 70" fill="none" xmlns="http://www.w3.org/2000/svg">
<path d="M79.6253 0.958374H67.0837C66.0857 0.958374 65.2956 1.77179 65.292 2.76975C65.2777 6.85833 60.6749 9.88625 56.3731 6.96046C55.0257 6.04312 54.5062 4.42166 54.542 2.79125C54.5635 1.78254 53.7537 0.958374 52.7503 0.958374H31.2503C30.2524 0.958374 29.4622 1.77179 29.4587 2.76975C29.4443 6.85833 24.8415 9.88625 20.5397 6.96046C19.1924 6.04312 18.6728 4.42166 18.7087 2.79125C18.7302 1.78254 17.9203 0.958374 16.917 0.958374H4.37533C2.39553 0.958374 0.791992 2.56192 0.791992 4.54171V65.4584C0.791992 67.4382 2.39553 69.0417 4.37533 69.0417H79.6253C81.6051 69.0417 83.2087 67.4382 83.2087 65.4584V4.54171C83.2087 2.56192 81.6051 0.958374 79.6253 0.958374ZM27.667 22.4584C31.6248 22.4584 34.8337 25.6672 34.8337 29.625C34.8337 33.5828 31.6248 36.7917 27.667 36.7917C23.7092 36.7917 20.5003 33.5828 20.5003 29.625C20.5003 25.6672 23.7092 22.4584 27.667 22.4584ZM15.1253 51.125C15.1253 45.1875 19.9377 40.375 25.8753 40.375H29.4587C35.3962 40.375 40.2087 45.1875 40.2087 51.125H15.1253ZM67.0837 47.5417H50.9587C49.9697 47.5417 49.167 46.739 49.167 45.75C49.167 44.761 49.9697 43.9584 50.9587 43.9584H67.0837C68.0727 43.9584 68.8753 44.761 68.8753 45.75C68.8753 46.739 68.0727 47.5417 67.0837 47.5417ZM67.0837 33.2084H50.9587C49.9697 33.2084 49.167 32.4057 49.167 31.4167C49.167 30.4277 49.9697 29.625 50.9587 29.625H67.0837C68.0727 29.625 68.8753 30.4277 68.8753 31.4167C68.8753 32.4057 68.0727 33.2084 67.0837 33.2084Z" fill="#111111"/>
</svg>
