<svg width="16" height="16" viewBox="0 0 16 16" fill="none" xmlns="http://www.w3.org/2000/svg">
<path d="M9.53342 8.11987C9.5179 8.10439 9.50558 8.086 9.49718 8.06575C9.48878 8.0455 9.48445 8.02379 9.48445 8.00187C9.48445 7.97995 9.48878 7.95824 9.49718 7.93799C9.50558 7.91775 9.5179 7.89935 9.53342 7.88387L15.7088 1.7092C15.8963 1.52143 16.0015 1.26686 16.0013 1.0015C16.0011 0.736133 15.8955 0.481712 15.7078 0.294204C15.52 0.106696 15.2654 0.00146067 15 0.0016482C14.7347 0.00183573 14.4803 0.107431 14.2928 0.295204L8.11808 6.4672C8.1026 6.48273 8.08421 6.49504 8.06396 6.50344C8.04371 6.51184 8.02201 6.51617 8.00008 6.51617C7.97816 6.51617 7.95646 6.51184 7.93621 6.50344C7.91596 6.49504 7.89757 6.48273 7.88208 6.4672L1.70742 0.295204C1.61457 0.202316 1.50434 0.128624 1.38302 0.0783367C1.26169 0.0280491 1.13165 0.00215054 1.00032 0.00211959C0.735081 0.00205708 0.480681 0.107363 0.293085 0.294871C0.105488 0.482379 6.25399e-05 0.73673 2.78157e-08 1.00197C-6.24843e-05 1.26721 0.105243 1.52161 0.292751 1.7092L6.46675 7.88387C6.48227 7.89935 6.49459 7.91775 6.50299 7.93799C6.51139 7.95824 6.51572 7.97995 6.51572 8.00187C6.51572 8.02379 6.51139 8.0455 6.50299 8.06575C6.49459 8.086 6.48227 8.10439 6.46675 8.11987L0.292751 14.2952C0.199907 14.3881 0.126267 14.4984 0.0760367 14.6197C0.0258064 14.7411 -3.0925e-05 14.8711 2.78157e-08 15.0024C6.25399e-05 15.2677 0.105488 15.522 0.293085 15.7095C0.385973 15.8024 0.496239 15.876 0.617587 15.9263C0.738934 15.9765 0.868987 16.0023 1.00032 16.0023C1.26556 16.0022 1.51991 15.8968 1.70742 15.7092L7.88208 9.53387C7.89757 9.51835 7.91596 9.50604 7.93621 9.49763C7.95646 9.48923 7.97816 9.48491 8.00008 9.48491C8.02201 9.48491 8.04371 9.48923 8.06396 9.49763C8.08421 9.50604 8.1026 9.51835 8.11808 9.53387L14.2928 15.7092C14.4803 15.8968 14.7346 16.0022 14.9999 16.0023C15.2651 16.0024 15.5195 15.897 15.7071 15.7095C15.8947 15.522 16.0001 15.2677 16.0002 15.0024C16.0002 14.7372 15.8949 14.4828 15.7074 14.2952L9.53342 8.11987Z" fill="#C4C4C4" fill-opacity="0.5"/>
</svg>
