<svg width="25" height="26" viewBox="0 0 25 26" fill="none" xmlns="http://www.w3.org/2000/svg">
<path fill-rule="evenodd" clip-rule="evenodd" d="M10.75 3.73232C10.75 4.14437 11.086 4.47878 11.5 4.47878C11.914 4.47878 12.25 4.14437 12.25 3.73232C12.25 3.32027 11.914 2.98586 11.5 2.98586C11.086 2.98586 10.75 3.32027 10.75 3.73232ZM8 4.97643C8 2.22778 10.2383 0 13 0C15.7617 0 18 2.22778 18 4.97643C18 7.72507 15.7617 9.95286 13 9.95286C10.2383 9.95286 8 7.72507 8 4.97643ZM13 25.9953L12 23.0094V10.9481C12.326 11.0029 12.658 11.0377 13 11.0377C13.342 11.0377 13.674 11.0029 14 10.9481V23.0094L13 25.9953Z" fill="white"/>
</svg>
