<svg width="16" height="15" viewBox="0 0 16 15" fill="none" xmlns="http://www.w3.org/2000/svg">
<path d="M15.9737 5.67651C15.9108 5.48654 15.7439 5.34801 15.5433 5.31914L10.6613 4.62121L8.47839 0.268811C8.29866 -0.0896036 7.70133 -0.0896036 7.5216 0.268811L5.3387 4.62121L0.456642 5.31914C0.256112 5.34801 0.0891811 5.48654 0.0262487 5.67651C-0.0366837 5.86647 0.0155822 6.07481 0.16118 6.21439L3.69393 9.60227L2.86034 14.3865C2.82621 14.5833 2.90834 14.7822 3.0726 14.8998C3.2374 15.0173 3.455 15.032 3.63419 14.9397L7.99999 12.6811L12.3663 14.9397C12.4442 14.9801 12.5295 15 12.6143 15C12.7247 15 12.8351 14.9664 12.9279 14.8998C13.0922 14.7822 13.1743 14.5833 13.1402 14.3865L12.3066 9.60227L15.8393 6.21439C15.9844 6.07481 16.0367 5.86647 15.9737 5.67651Z" fill="#FFFCCC"/>
</svg>
