<svg width="16" height="16" viewBox="0 0 16 16" fill="none" xmlns="http://www.w3.org/2000/svg">
<path d="M6.11266 0.183854C6.68721 0.0450734 7.2 0.512394 7.2 1.10347V14.8965C7.2 15.4876 6.68721 15.9549 6.11266 15.8161C2.59566 14.9666 0 11.7871 0 8C0 4.21287 2.59566 1.03337 6.11266 0.183854ZM9.912 0.184923C9.33729 0.04557 8.824 0.512919 8.824 1.10429V6.192C8.824 6.74429 9.27172 7.192 9.824 7.192H14.8959C15.4872 7.192 15.9545 6.67889 15.8159 6.10408C15.1128 3.18922 12.8202 0.890066 9.912 0.184923ZM9.824 8.808C9.27172 8.808 8.824 9.25572 8.824 9.808V14.8959C8.824 15.4872 9.33714 15.9546 9.91186 15.8156C12.8251 15.111 15.1139 12.8115 15.8161 9.89595C15.9545 9.3211 15.4872 8.808 14.8959 8.808H9.824Z" fill="#FFFCCC"/>
</svg>
