<svg width="16" height="16" viewBox="0 0 16 16" fill="none" xmlns="http://www.w3.org/2000/svg">
<path d="M8 0C6.41775 0 4.87104 0.469192 3.55544 1.34824C2.23985 2.22729 1.21447 3.47672 0.608967 4.93853C0.00346628 6.40034 -0.15496 8.00887 0.153721 9.56072C0.462403 11.1126 1.22433 12.538 2.34315 13.6569C3.46197 14.7757 4.88743 15.5376 6.43928 15.8463C7.99113 16.155 9.59966 15.9965 11.0615 15.391C12.5233 14.7855 13.7727 13.7602 14.6518 12.4446C15.5308 11.129 16 9.58225 16 8C15.9974 5.87907 15.1537 3.84575 13.654 2.34602C12.1543 0.846297 10.1209 0.00260557 8 0ZM8 14.1538C7.75519 14.1538 7.5204 14.0566 7.34729 13.8835C7.17418 13.7104 7.07693 13.4756 7.07693 13.2308V12.9231C7.07693 12.8415 7.04451 12.7632 6.98681 12.7055C6.9291 12.6478 6.85084 12.6154 6.76923 12.6154H6.15385C5.90903 12.6154 5.67425 12.5181 5.50114 12.345C5.32803 12.1719 5.23077 11.9371 5.23077 11.6923C5.23077 11.4475 5.32803 11.2127 5.50114 11.0396C5.67425 10.8665 5.90903 10.7692 6.15385 10.7692H8.656C8.82499 10.7688 8.98857 10.7097 9.11875 10.6019C9.24893 10.4941 9.33761 10.3445 9.3696 10.1786C9.40159 10.0126 9.37491 9.84074 9.29413 9.69231C9.21335 9.54388 9.08349 9.42815 8.92677 9.36492L6.38647 8.34831C5.87248 8.14394 5.43833 7.77888 5.14877 7.3076C4.85921 6.83632 4.72976 6.28406 4.77973 5.73319C4.82969 5.18232 5.0564 4.66237 5.42602 4.25087C5.79565 3.83938 6.2884 3.5584 6.83077 3.44985C6.90027 3.43566 6.96274 3.3979 7.00759 3.34295C7.05245 3.288 7.07694 3.21924 7.07693 3.14831V2.76923C7.07693 2.52442 7.17418 2.28963 7.34729 2.11652C7.5204 1.94341 7.75519 1.84615 8 1.84615C8.24482 1.84615 8.47961 1.94341 8.65272 2.11652C8.82583 2.28963 8.92308 2.52442 8.92308 2.76923V3.07692C8.92292 3.11738 8.93077 3.15746 8.94617 3.19486C8.96158 3.23227 8.98423 3.26625 9.01284 3.29486C9.04144 3.32346 9.07543 3.34612 9.11283 3.36153C9.15024 3.37693 9.19032 3.38478 9.23077 3.38462H9.84616C10.091 3.38462 10.3258 3.48187 10.4989 3.65498C10.672 3.82809 10.7692 4.06288 10.7692 4.30769C10.7692 4.55251 10.672 4.7873 10.4989 4.96041C10.3258 5.13352 10.091 5.23077 9.84616 5.23077H7.34277C7.17379 5.2312 7.0102 5.29035 6.88002 5.3981C6.74985 5.50585 6.66117 5.6555 6.62918 5.82144C6.59718 5.98737 6.62386 6.15926 6.70464 6.30769C6.78543 6.45612 6.91529 6.57185 7.072 6.63508L9.61231 7.65169C10.1263 7.85606 10.5604 8.22112 10.85 8.6924C11.1396 9.16368 11.269 9.71594 11.219 10.2668C11.1691 10.8177 10.9424 11.3376 10.5728 11.7491C10.2031 12.1606 9.71037 12.4416 9.168 12.5502C9.0985 12.5643 9.03604 12.6021 8.99118 12.6571C8.94633 12.712 8.92184 12.7808 8.92185 12.8517V13.2308C8.92185 13.4754 8.82477 13.71 8.65192 13.883C8.47908 14.0561 8.24461 14.1535 8 14.1538Z" fill="#FFFCCC"/>
</svg>
