<svg width="16" height="16" viewBox="0 0 16 16" fill="none" xmlns="http://www.w3.org/2000/svg">
<path d="M7.06193 5.23071C7.01773 5.23071 6.97534 5.24827 6.94408 5.27953C6.91282 5.31078 6.89526 5.35318 6.89526 5.39738V6.84338C6.89526 6.88758 6.91282 6.92997 6.94408 6.96123C6.97534 6.99249 7.01773 7.01005 7.06193 7.01005H8.21526C8.447 7.0037 8.66712 6.90719 8.82879 6.74103C8.99045 6.57488 9.08091 6.3522 9.08091 6.12038C9.08091 5.88855 8.99045 5.66588 8.82879 5.49972C8.66712 5.33357 8.447 5.23706 8.21526 5.23071H7.06193Z" fill="#FFFCCC"/>
<path d="M8.21526 8.67676H7.06193C7.01773 8.67676 6.97534 8.69432 6.94408 8.72557C6.91282 8.75683 6.89526 8.79922 6.89526 8.84342V10.2901C6.89526 10.3343 6.91282 10.3767 6.94408 10.4079C6.97534 10.4392 7.01773 10.4568 7.06193 10.4568H8.21526C8.45131 10.4568 8.67768 10.363 8.84459 10.1961C9.0115 10.0292 9.10526 9.8028 9.10526 9.56676C9.10526 9.33072 9.0115 9.10434 8.84459 8.93743C8.67768 8.77053 8.45131 8.67676 8.21526 8.67676Z" fill="#FFFCCC"/>
<path d="M8 0C6.41775 0 4.87103 0.469192 3.55544 1.34824C2.23985 2.22729 1.21447 3.47672 0.608967 4.93853C0.00346629 6.40034 -0.15496 8.00887 0.153721 9.56072C0.462403 11.1126 1.22433 12.538 2.34315 13.6569C3.46197 14.7757 4.88743 15.5376 6.43928 15.8463C7.99113 16.155 9.59966 15.9965 11.0615 15.391C12.5233 14.7855 13.7727 13.7602 14.6518 12.4446C15.5308 11.129 16 9.58225 16 8C16 5.87827 15.1571 3.84344 13.6569 2.34315C12.1566 0.842855 10.1217 0 8 0V0ZM10.1833 7.73733C10.1586 7.76712 10.1451 7.80462 10.1451 7.84333C10.1451 7.88204 10.1586 7.91954 10.1833 7.94933C10.4857 8.31257 10.6805 8.75302 10.746 9.22105C10.8114 9.68908 10.7449 10.1661 10.5538 10.5983C10.3627 11.0306 10.0548 11.4009 9.66456 11.6675C9.27436 11.9341 8.81746 12.0864 8.34534 12.1073C8.30265 12.1094 8.26238 12.1278 8.23285 12.1586C8.20332 12.1895 8.18679 12.2306 8.18667 12.2733V12.6667C8.18667 12.8877 8.09887 13.0996 7.94259 13.2559C7.78631 13.4122 7.57435 13.5 7.35334 13.5C7.13232 13.5 6.92036 13.4122 6.76408 13.2559C6.6078 13.0996 6.52 12.8877 6.52 12.6667V12.29C6.52009 12.2681 6.51584 12.2464 6.5075 12.2261C6.49915 12.2059 6.48688 12.1874 6.47138 12.172C6.45589 12.1565 6.43748 12.1442 6.41722 12.1358C6.39696 12.1275 6.37525 12.1232 6.35334 12.1233H6.062C5.84099 12.1233 5.62903 12.0355 5.47275 11.8793C5.31647 11.723 5.22867 11.511 5.22867 11.29V4.4C5.22858 4.29054 5.25008 4.18214 5.29192 4.08099C5.33377 3.97985 5.39515 3.88795 5.47255 3.81055C5.54995 3.73315 5.64185 3.67177 5.743 3.62992C5.84414 3.58807 5.95254 3.56658 6.062 3.56667H6.354C6.39821 3.56667 6.4406 3.54911 6.47185 3.51785C6.50311 3.48659 6.52067 3.4442 6.52067 3.4V3.33333C6.52067 3.11232 6.60847 2.90036 6.76475 2.74408C6.92103 2.5878 7.13299 2.5 7.354 2.5C7.57502 2.5 7.78698 2.5878 7.94326 2.74408C8.09954 2.90036 8.18734 3.11232 8.18734 3.33333V3.434C8.1873 3.47153 8.20179 3.50761 8.22776 3.5347C8.25373 3.56179 8.28917 3.57778 8.32667 3.57933C8.80107 3.59543 9.26142 3.74448 9.65522 4.00951C10.049 4.27453 10.3604 4.64487 10.554 5.0783C10.7475 5.51173 10.8154 5.99082 10.7499 6.46095C10.6843 6.93109 10.488 7.37335 10.1833 7.73733Z" fill="#FFFCCC"/>
</svg>
