<svg width="16" height="16" viewBox="0 0 16 16" fill="none" xmlns="http://www.w3.org/2000/svg">
<path d="M15.9474 6.18162C15.9077 6.12738 15.8478 6.0819 15.7741 6.05016C15.7004 6.01843 15.6158 6.00164 15.5296 6.00165H8.58847L10.3426 0.406523C10.3664 0.331435 10.3529 0.252806 10.3042 0.18399C10.2555 0.115173 10.1747 0.0604125 10.0755 0.0290062C9.97633 -0.00240003 9.86483 -0.00851534 9.75998 0.0116988C9.65513 0.031913 9.56339 0.0772104 9.50034 0.139899L0.0899395 9.47177C0.0387874 9.52161 0.00814316 9.58052 0.0014112 9.64195C-0.00532077 9.70338 0.0121232 9.76494 0.051805 9.81977C0.0914868 9.87461 0.151853 9.92057 0.226197 9.95257C0.300541 9.98457 0.385953 10.0013 0.472943 10.001H7.41405L5.65995 15.5935C5.63607 15.6686 5.64962 15.7472 5.6983 15.816C5.74697 15.8848 5.82778 15.9396 5.92699 15.971C6.02619 16.0024 6.13769 16.0085 6.24254 15.9883C6.34739 15.9681 6.43913 15.9228 6.50218 15.8601L15.9126 6.52823C15.9628 6.47831 15.9927 6.41955 15.9988 6.35839C16.005 6.29724 15.9872 6.23607 15.9474 6.18162Z" fill="#FFFCCC"/>
</svg>
