<svg width="40" height="40" viewBox="0 0 40 40" fill="none" xmlns="http://www.w3.org/2000/svg">
<circle cx="20" cy="20" r="20" fill="#FFFCCC"/>
<path fill-rule="evenodd" clip-rule="evenodd" d="M17.1641 9.09651C17.5131 8.93097 17.9262 8.98121 18.2253 9.22557C18.3569 9.33306 18.507 9.45165 18.6716 9.58167C19.6639 10.3655 21.1823 11.5649 22.3347 13.2532C23.0393 14.2855 23.5977 15.6175 23.9742 16.6861C24.0223 16.8228 24.0679 16.9564 24.1108 17.0859C24.3356 16.7067 24.523 16.2201 24.5975 15.5955C24.6486 15.1669 24.9691 14.8194 25.3922 14.7338C25.8154 14.6482 26.2457 14.8439 26.4594 15.219C26.7585 15.7441 26.9634 16.1072 27.1629 16.5643C27.3586 17.0126 27.5426 17.5363 27.8266 18.3901C28.4402 20.2345 28.4999 21.4501 28.4999 22.5491C28.4999 27.3041 24.6549 31 20 31C15.3742 31 11.5 27.4922 11.5 22.7091C11.5 21.6527 11.6112 20.0107 12.4119 18.7087C12.9575 17.8216 13.3527 17.3976 13.834 16.8813C13.9764 16.7285 14.1264 16.5676 14.29 16.3843C14.4304 16.227 14.5426 16.1035 14.6362 16.0005C14.8254 15.7923 14.9383 15.6681 15.0541 15.5173C15.2052 15.3206 15.3576 15.0784 15.6598 14.5102C15.9031 14.0525 16.1422 13.2993 16.3197 12.4295C16.4945 11.5726 16.5927 10.6866 16.5927 10C16.5927 9.61376 16.8151 9.26204 17.1641 9.09651ZM18.4319 11.9646C18.3886 12.2543 18.3374 12.5446 18.2793 12.8293C18.0864 13.7749 17.8005 14.7441 17.4256 15.4492C17.1095 16.0437 16.8948 16.4041 16.6402 16.7356C16.4718 16.9549 16.2799 17.1661 16.0548 17.4139C15.9689 17.5085 15.8783 17.6083 15.7822 17.7159M18.4319 11.9646C19.2 12.6157 20.0106 13.3959 20.6829 14.3808C21.2417 15.1994 21.7317 16.3397 22.0878 17.3506C22.2629 17.8479 22.3994 18.2957 22.4909 18.6308C22.5369 18.7989 22.5699 18.9329 22.5906 19.0269C22.6011 19.0748 22.6061 19.1025 22.6082 19.1144C22.6339 19.4662 22.8439 19.7808 23.1636 19.9383C23.5052 20.1067 23.9128 20.0663 24.2148 19.8343C24.2351 19.8187 24.2597 19.8004 24.2882 19.7792C24.5553 19.5806 25.1636 19.1281 25.6935 18.3252C25.762 18.5231 25.8392 18.7518 25.9289 19.0215C26.4551 20.603 26.4999 21.5917 26.4999 22.5491C26.4999 26.1702 23.5798 29 20 29C16.3911 29 13.5 26.302 13.5 22.7091C13.5 21.7091 13.6248 20.5543 14.1155 19.7565C14.5504 19.0493 14.8026 18.7783 15.2443 18.3036C15.3962 18.1405 15.5704 17.9532 15.7822 17.7159" fill="#1C1F26"/>
</svg>
