<svg width="24" height="24" viewBox="0 0 24 24" fill="none" xmlns="http://www.w3.org/2000/svg">
<rect opacity="0.2" width="24" height="24" rx="12" fill="#FFFCCC"/>
<path d="M12 18.6666C14.7449 18.6666 16.9999 16.4914 16.9999 13.6993C16.9999 13.0139 16.9651 12.2791 16.5852 11.1372C16.2052 9.99525 16.1287 9.84785 15.727 9.14261C15.5553 10.5818 14.637 11.1816 14.4037 11.3608C14.4037 11.1743 13.8482 9.11195 13.0059 7.87795C12.179 6.66665 11.0545 5.87195 10.3951 5.33331C10.3951 6.35657 10.1073 7.87795 9.69513 8.65311C9.28297 9.42828 9.20557 9.45651 8.69073 10.0334C8.17593 10.6102 7.93963 10.7884 7.50913 11.4883C7.07865 12.1883 7 13.1206 7 13.806C7 16.598 9.2551 18.6666 12 18.6666Z" fill="#FFFCCC"/>
</svg>
