<svg width="20" height="19" viewBox="0 0 20 19" fill="none" xmlns="http://www.w3.org/2000/svg">
<path fill-rule="evenodd" clip-rule="evenodd" d="M9.33333 0.666504H10.6667V3.33317L12 3.33317V11.9998H8V3.33317L9.33333 3.33317V0.666504ZM10.6667 13.3332H9.33333V16.6665H10.6667V13.3332ZM1.33333 2.6665H2.66667V5.33317H1.33333V2.6665ZM2.66667 7.99984H1.33333V13.9998H2.66667V7.99984ZM0 6.6665V15.3332L1.33333 15.3332V18.6665H2.66667V15.3332L4 15.3332V6.6665H0ZM18.6667 2.6665H17.3333V5.33317H18.6667V2.6665ZM17.3333 7.99984H18.6667V13.9998H17.3333V7.99984ZM16 15.3332V6.6665H20V15.3332L18.6667 15.3332V18.6665H17.3333V15.3332L16 15.3332Z" fill="#1C1F26"/>
</svg>
