<svg width="18" height="18" viewBox="0 0 18 18" fill="none" xmlns="http://www.w3.org/2000/svg">
<path d="M1 12.3293C1 12.209 1 12.1489 1.01336 12.0923C1.02571 12.0399 1.04643 11.9899 1.07471 11.9442C1.1053 11.8947 1.14782 11.8522 1.23285 11.7671L4.80498 8.19502C4.87339 8.12661 4.9076 8.0924 4.94759 8.07717C4.98435 8.06317 5.02443 8.06032 5.0628 8.06898C5.10454 8.0784 5.14324 8.10743 5.22064 8.16548L8.63014 10.7226C8.75861 10.819 8.82284 10.8671 8.89092 10.8802C8.95344 10.8922 9.01814 10.8839 9.07568 10.8567C9.13834 10.8271 9.1885 10.7644 9.28881 10.639L15.5842 2.76974C16.0137 2.23282 16.2285 1.96436 16.4162 1.93246C16.5861 1.9036 16.7588 1.96418 16.8733 2.09281C17 2.23498 17 2.57878 17 3.26637V13.82C17 14.9212 17 15.4719 16.7891 15.894C16.5955 16.2814 16.2814 16.5955 15.894 16.7891C15.4719 17 14.9212 17 13.82 17H4.18C3.07876 17 2.52814 17 2.10604 16.7891C1.71862 16.5955 1.4045 16.2814 1.21091 15.894C1 15.4719 1 14.9212 1 13.82V12.3293Z" fill="#1C1F26" stroke="#1C1F26" stroke-width="2"/>
</svg>
