<svg width="24" height="16" viewBox="0 0 24 16" fill="none" xmlns="http://www.w3.org/2000/svg">
<path d="M17.6242 9.46594L12.649 11.1225C12.2288 11.2589 11.7763 11.2589 11.3561 11.1225L6.37902 9.46594C6.24277 9.41898 6.09718 9.4057 5.95468 9.42723C5.81219 9.44876 5.67702 9.50447 5.56073 9.58959C5.44364 9.67383 5.34828 9.78471 5.28251 9.91308C5.21674 10.0415 5.18246 10.1836 5.1825 10.3279V12.3118C5.18344 12.7445 5.31815 13.1664 5.56815 13.5196C5.81816 13.8728 6.17125 14.14 6.57905 14.2848L10.9106 15.8141C11.6168 16.0618 12.3864 16.0618 13.0927 15.8141L17.4278 14.283C17.8353 14.1385 18.1881 13.8715 18.4378 13.5186C18.6875 13.1656 18.8219 12.7441 18.8226 12.3118V10.3279C18.8226 10.1836 18.7883 10.0415 18.7225 9.91308C18.6568 9.78471 18.5614 9.67383 18.4443 9.58959C18.3278 9.50431 18.1923 9.44852 18.0495 9.42699C17.9067 9.40546 17.7607 9.41882 17.6242 9.46594Z" fill="#1C1F26"/>
<path d="M23.5487 4.45447C23.5486 4.26372 23.4884 4.07785 23.3768 3.92316C23.2652 3.76848 23.1078 3.65281 22.9268 3.59253L12.289 0.046589C12.1025 -0.0155297 11.9009 -0.0155297 11.7143 0.046589L1.07651 3.59253C0.763173 3.69704 0.490627 3.89743 0.297438 4.16535C0.104248 4.43327 0.000194849 4.75516 0 5.08547V10.3589C0 10.7206 0.143688 11.0675 0.399455 11.3233C0.655222 11.5791 1.00212 11.7228 1.36383 11.7228C1.72553 11.7228 2.07243 11.5791 2.3282 11.3233C2.58396 11.0675 2.72765 10.7206 2.72765 10.3589V6.49839C2.72781 6.42638 2.74501 6.35543 2.77785 6.29134C2.81068 6.22725 2.85821 6.17183 2.91655 6.12962C2.9749 6.08742 3.0424 6.05961 3.11355 6.04849C3.1847 6.03736 3.25747 6.04323 3.32591 6.0656L11.7143 8.86236C11.9007 8.9254 12.1026 8.9254 12.289 8.86236L22.9268 5.31641C23.1078 5.25613 23.2652 5.14046 23.3768 4.98578C23.4884 4.83109 23.5486 4.64522 23.5487 4.45447Z" fill="#1C1F26"/>
</svg>
