<svg width="16" height="16" viewBox="0 0 16 16" fill="none" xmlns="http://www.w3.org/2000/svg">
<path d="M8 0C6.41775 0 4.87104 0.469192 3.55544 1.34824C2.23985 2.22729 1.21447 3.47672 0.608967 4.93853C0.00346629 6.40034 -0.15496 8.00887 0.153721 9.56072C0.462403 11.1126 1.22433 12.538 2.34315 13.6569C3.46197 14.7757 4.88743 15.5376 6.43928 15.8463C7.99113 16.155 9.59966 15.9965 11.0615 15.391C12.5233 14.7855 13.7727 13.7602 14.6518 12.4446C15.5308 11.129 16 9.58225 16 8C16 5.87827 15.1571 3.84344 13.6569 2.34315C12.1566 0.842855 10.1217 0 8 0V0ZM8.976 12.3913C8.93637 12.3972 8.90016 12.4172 8.87398 12.4475C8.8478 12.4779 8.83338 12.5166 8.83334 12.5567V13.0667C8.83334 13.2877 8.74554 13.4996 8.58926 13.6559C8.43298 13.8122 8.22102 13.9 8 13.9C7.77899 13.9 7.56703 13.8122 7.41075 13.6559C7.25447 13.4996 7.16667 13.2877 7.16667 13.0667V12.5967C7.16676 12.5748 7.16251 12.553 7.15416 12.5328C7.14582 12.5125 7.13355 12.4941 7.11805 12.4786C7.10256 12.4631 7.08415 12.4509 7.06389 12.4425C7.04363 12.4342 7.02192 12.4299 7 12.43H6.23534C6.01432 12.43 5.80236 12.3422 5.64608 12.1859C5.4898 12.0296 5.402 11.8177 5.402 11.5967C5.402 11.3757 5.4898 11.1637 5.64608 11.0074C5.80236 10.8511 6.01432 10.7633 6.23534 10.7633H8.62734C8.80053 10.7633 8.9683 10.7029 9.10183 10.5926C9.23535 10.4823 9.32629 10.329 9.35903 10.1589C9.39177 9.98881 9.36425 9.81264 9.28122 9.66065C9.19818 9.50866 9.06481 9.39034 8.904 9.326L6.47734 8.35467C5.9847 8.1593 5.57045 7.80658 5.29905 7.35139C5.02764 6.8962 4.9143 6.36406 4.97667 5.83779C5.03903 5.31151 5.2736 4.8206 5.64387 4.44144C6.01414 4.06229 6.49935 3.81615 7.024 3.74133C7.06359 3.73557 7.09978 3.71577 7.12597 3.68554C7.15216 3.65531 7.16661 3.61667 7.16667 3.57667V3.06667C7.16667 2.84565 7.25447 2.63369 7.41075 2.47741C7.56703 2.32113 7.77899 2.23333 8 2.23333C8.22102 2.23333 8.43298 2.32113 8.58926 2.47741C8.74554 2.63369 8.83334 2.84565 8.83334 3.06667V3.53733C8.83334 3.58154 8.8509 3.62393 8.88215 3.65518C8.91341 3.68644 8.9558 3.704 9 3.704H9.76467C9.98568 3.704 10.1976 3.7918 10.3539 3.94808C10.5102 4.10436 10.598 4.31632 10.598 4.53733C10.598 4.75835 10.5102 4.97031 10.3539 5.12659C10.1976 5.28287 9.98568 5.37067 9.76467 5.37067H7.37267C7.19933 5.37029 7.0313 5.4304 6.89752 5.54063C6.76375 5.65086 6.67262 5.8043 6.63984 5.97451C6.60706 6.14472 6.63469 6.32104 6.71796 6.47306C6.80123 6.62509 6.93493 6.74331 7.096 6.80733L9.52267 7.77867C10.0153 7.97403 10.4296 8.32675 10.701 8.78194C10.9724 9.23713 11.0857 9.76927 11.0233 10.2955C10.961 10.8218 10.7264 11.3127 10.3561 11.6919C9.98587 12.071 9.50066 12.3172 8.976 12.392V12.3913Z" fill="#2A2D38"/>
</svg>
