<svg width="20" height="20" viewBox="0 0 20 20" fill="none" xmlns="http://www.w3.org/2000/svg">
<path d="M14.9532 15.3152C15.1479 15.5098 15.4618 15.5223 15.6627 15.3152C15.8698 15.1017 15.8573 14.8004 15.6627 14.6058L5.00905 3.96473C4.81444 3.77012 4.49426 3.76384 4.29965 3.96473C4.11131 4.15307 4.11131 4.47952 4.29965 4.66786L14.9532 15.3152ZM15.5434 13.3941C17.3765 12.1637 18.5379 10.5 18.5379 9.75923C18.5379 8.4911 15.0914 4.37907 9.99998 4.37907C8.93274 4.37907 7.93455 4.56113 7.03054 4.86247L8.75068 6.58262C9.13991 6.42567 9.56053 6.33778 10.0063 6.33778C11.9085 6.33778 13.4466 7.85075 13.4466 9.76551C13.4466 10.205 13.3524 10.6319 13.1829 11.0148L15.5434 13.3941ZM9.99998 15.1457C11.1488 15.1457 12.2161 14.9385 13.1578 14.5932L11.4251 12.8605C10.9982 13.074 10.5148 13.187 10.0063 13.187C8.0915 13.187 6.56597 11.6238 6.55969 9.76551C6.55969 9.24445 6.67269 8.75477 6.87987 8.32159L4.61354 6.04272C2.66112 7.2983 1.46204 9.01844 1.46204 9.75923C1.46204 11.0336 4.97138 15.1457 9.99998 15.1457ZM12.0089 9.63368C12.0089 8.53504 11.13 7.64986 10.0251 7.64986C9.95604 7.64986 9.88698 7.65614 9.8242 7.66241L11.9964 9.82829C12.0026 9.77179 12.0089 9.70273 12.0089 9.63368ZM7.98478 9.65879C7.98478 10.7574 8.88879 11.6426 9.98115 11.6426C10.0565 11.6426 10.1255 11.6363 10.1946 11.63L7.99733 9.43278C7.99105 9.50812 7.98478 9.58345 7.98478 9.65879Z" fill="white" fill-opacity="0.64"/>
</svg>
