<svg width="20" height="20" viewBox="0 0 20 20" fill="none" xmlns="http://www.w3.org/2000/svg">
<path d="M9.99998 15.1455C15.0976 15.1455 18.5379 11.0335 18.5379 9.75907C18.5379 8.49093 15.0914 4.37891 9.99998 4.37891C4.97766 4.37891 1.46204 8.49093 1.46204 9.75907C1.46204 11.0335 4.97138 15.1455 9.99998 15.1455ZM10.0063 13.1868C8.0915 13.1868 6.56597 11.6236 6.55969 9.76535C6.55341 7.84431 8.0915 6.33761 10.0063 6.33761C11.9085 6.33761 13.4466 7.85059 13.4466 9.76535C13.4466 11.6236 11.9085 13.1868 10.0063 13.1868ZM10.0063 11.0398C10.7094 11.0398 11.2932 10.4622 11.2932 9.76535C11.2932 9.06222 10.7094 8.47838 10.0063 8.47838C9.29058 8.47838 8.71301 9.06222 8.71301 9.76535C8.71301 10.4622 9.29058 11.0398 10.0063 11.0398Z" fill="white" fill-opacity="0.64"/>
</svg>
